<svg version="1.1" viewBox="0.0 0.0 960.0 540.0" fill="none" stroke="none" stroke-linecap="square" stroke-miterlimit="10" xmlns:xlink="http://www.w3.org/1999/xlink" xmlns="http://www.w3.org/2000/svg"><clipPath id="g366bcb649b3_0_0.0"><path d="m0 0l960.0 0l0 540.0l-960.0 0l0 -540.0z" clip-rule="nonzero"/></clipPath><g clip-path="url(#g366bcb649b3_0_0.0)"><path fill="#000000" fill-opacity="0.0" d="m0 0l960.0 0l0 540.0l-960.0 0z" fill-rule="evenodd"/><path fill="#ffffff" d="m630.521 172.60477c0 0.50868225 0 0 0 0z" fill-rule="evenodd"/><path fill="#ffffff" d="m629.50366 171.62979z" fill-rule="evenodd"/><path fill="#ffffff" d="m578.04193 165.05931l-40.39789 244.2524l0 -244.2524zm-109.536285 -26.239532c-3.0097046 0 -5.553131 2.5010223 -5.553131 6.019409c0 3.0520935 2.5434265 5.553116 5.553131 5.553116l57.52353 0l0 320.51236l-256.88467 0l0 -27.256897c0 -3.0097046 -2.5010376 -5.553131 -5.553131 -5.553131c-3.0097046 0 -5.553131 2.5434265 -5.553131 5.553131l0 32.30133c0 3.0097046 2.5434265 5.553131 5.553131 5.553131l268.49957 0c2.543396 0 4.069458 -2.034729 5.0444336 -3.518402l56.039856 -181.7268c0.508667 -3.518402 -1.017334 -6.061798 -4.0270386 -7.0367737c-0.508728 -0.08480835 -0.9749756 -0.12719727 -1.4412842 -0.12719727c-2.3738403 0 -4.366211 1.1021729 -5.6378784 3.6455688l-32.81006 105.975525l36.32843 -218.01285l31.326355 0l-28.274292 91.35089c-0.508667 3.0097046 0.508728 5.553131 3.5184326 7.0791626l2.034729 0c2.5009766 0 4.5357056 -1.5260315 5.0444336 -4.069458l30.266602 -98.387665c1.526062 -1.0173645 1.526062 -3.0520935 0 -4.069458c-1.017395 -1.4836578 -2.5010376 -2.5010223 -4.0270996 -2.5010223l-37.345764 0l2.034729 -10.088867c0 -2.034729 0 -3.5607758 -1.526062 -4.5357513c-1.526001 -1.5260468 -2.543396 -2.034729 -4.5357056 -2.034729l-46.459717 0l0 -8.605209c0 -3.5183868 -2.5009766 -6.019409 -6.0617676 -6.019409z" fill-rule="evenodd"/><path fill="#ffffff" d="m265.11743 114.57257c-3.052124 0 -5.553131 2.543419 -5.553131 5.5531235l0 301.3096c0 3.0520935 2.501007 5.5531006 5.553131 5.5531006c3.0097046 0 5.5531006 -2.501007 5.5531006 -5.5531006l0 -295.7565l63.585327 0l22.72113 23.229836c1.526062 1.4836578 2.5010376 1.9923401 4.027069 1.9923401l85.79779 0c3.0520935 0 5.553131 -2.5010223 5.553131 -5.553116c-0.5086975 -3.0097046 -3.0097046 -5.553116 -5.553131 -5.553116l-83.254364 0l-22.72116 -23.696136c-1.5260315 -1.0173645 -2.543396 -1.5260468 -4.027069 -1.5260468z" fill-rule="evenodd"/><path fill="#ffffff" d="m331.75482 218.04707l0 14.624619l-15.17569 0l0 -14.624619zm-20.72882 -11.106232c-3.0097046 0 -5.5531006 2.5010223 -5.5531006 6.061798l0 25.73085c0 3.0097046 2.543396 5.553116 5.5531006 5.553116l25.773254 0c3.518402 0 6.019409 -2.5434113 6.019409 -5.553116l0 -25.73085c0 -3.5607758 -2.501007 -6.061798 -6.019409 -6.061798z" fill-rule="evenodd"/><path fill="#ffffff" d="m363.5475 232.67169c-3.0520935 0 -5.553131 2.5434113 -5.553131 6.061798c0 3.0097046 2.5010376 5.553116 5.553131 5.553116l119.116486 0c3.0097046 0 5.5107117 -2.5434113 5.5107117 -5.553116c0 -3.0097046 -2.501007 -6.061798 -5.5107117 -6.061798z" fill-rule="evenodd"/><path fill="#ffffff" d="m363.5475 214.52869c-3.0520935 0 -5.553131 2.5010223 -5.553131 5.553116c0 3.5183868 2.5010376 6.019409 5.553131 6.019409l28.74057 0c3.5607605 0 6.061798 -2.5010223 6.061798 -6.019409c0 -3.0520935 -2.5010376 -5.553116 -6.061798 -5.553116z" fill-rule="evenodd"/><path fill="#ffffff" d="m331.75482 303.84485l0 15.133301l-15.17569 0l0 -15.133301zm-20.72882 -11.614899c-3.0097046 0 -5.5531006 2.543396 -5.5531006 5.5531006l0 26.239532c0 3.0520935 2.543396 5.553131 5.5531006 5.553131l25.773254 0c3.518402 0 6.019409 -2.5010376 6.019409 -5.553131l0 -26.239532c0 -3.0097046 -2.501007 -5.5531006 -6.019409 -5.5531006z" fill-rule="evenodd"/><path fill="#ffffff" d="m363.5475 318.97815c-3.0520935 0 -5.553131 2.034729 -5.553131 5.553131c0 3.0520935 2.5010376 5.5531006 5.553131 5.5531006l119.116486 0c3.0097046 0 5.5107117 -2.501007 5.5107117 -5.5531006c0 -3.518402 -2.501007 -5.553131 -5.5107117 -5.553131z" fill-rule="evenodd"/><path fill="#ffffff" d="m363.5475 300.32648c-3.0520935 0 -5.553131 2.501007 -5.553131 6.019409c0 3.0520935 2.5010376 5.5531006 5.553131 5.5531006l28.74057 0c3.5607605 0 6.061798 -2.501007 6.061798 -5.5531006c0 -3.518402 -2.5010376 -6.019409 -6.061798 -6.019409z" fill-rule="evenodd"/><path fill="#ffffff" d="m331.75482 388.62527l0 15.133301l-15.17569 0l0 -15.133301zm-20.72882 -10.597565c-3.0097046 0 -5.5531006 2.5434265 -5.5531006 5.553131l0 25.730865c0 3.5607605 2.543396 6.061798 5.5531006 6.061798l25.773254 0c3.518402 0 6.019409 -2.5010376 6.019409 -6.061798l0 -25.730865c0 -3.0097046 -2.501007 -5.553131 -6.019409 -5.553131z" fill-rule="evenodd"/><path fill="#ffffff" d="m363.5475 403.75858c-3.0520935 0 -5.553131 2.543396 -5.553131 5.553131c0 3.5607605 2.5010376 6.061798 5.553131 6.061798l119.116486 0c3.0097046 0 5.5107117 -2.5010376 5.5107117 -6.061798c0 -3.009735 -2.501007 -5.553131 -5.5107117 -5.553131z" fill-rule="evenodd"/><path fill="#ffffff" d="m363.5475 385.61557c-3.0520935 0 -5.553131 2.501007 -5.553131 5.5531006c0 3.518402 2.5010376 5.553131 5.553131 5.553131l28.74057 0c3.5607605 0 6.061798 -2.034729 6.061798 -5.553131c0 -3.0520935 -2.5010376 -5.5531006 -6.061798 -5.5531006z" fill-rule="evenodd"/></g></svg>