<svg xmlns="http://www.w3.org/2000/svg" xmlns:xlink="http://www.w3.org/1999/xlink" width="500" zoomAndPan="magnify" viewBox="0 0 375 374.999991" height="500" preserveAspectRatio="xMidYMid meet" version="1.2"><defs><clipPath id="9a0ddffc79"><path d="M 7.5 6.105469 L 370.5 6.105469 L 370.5 369.105469 L 7.5 369.105469 Z M 7.5 6.105469 "/></clipPath><clipPath id="9ff20739ae"><path d="M 370.5 187.605469 C 370.5 190.574219 370.425781 193.542969 370.28125 196.511719 C 370.136719 199.476562 369.917969 202.4375 369.625 205.394531 C 369.335938 208.351562 368.972656 211.296875 368.535156 214.234375 C 368.101562 217.175781 367.59375 220.101562 367.011719 223.011719 C 366.433594 225.925781 365.78125 228.824219 365.0625 231.707031 C 364.339844 234.585938 363.546875 237.449219 362.683594 240.292969 C 361.824219 243.132812 360.890625 245.953125 359.890625 248.75 C 358.890625 251.546875 357.820312 254.316406 356.683594 257.0625 C 355.546875 259.804688 354.34375 262.519531 353.074219 265.207031 C 351.804688 267.890625 350.46875 270.542969 349.070312 273.164062 C 347.667969 275.78125 346.203125 278.367188 344.679688 280.914062 C 343.152344 283.460938 341.5625 285.972656 339.910156 288.441406 C 338.261719 290.910156 336.550781 293.339844 334.78125 295.722656 C 333.011719 298.109375 331.1875 300.449219 329.300781 302.746094 C 327.417969 305.042969 325.476562 307.292969 323.484375 309.492188 C 321.488281 311.695312 319.441406 313.84375 317.339844 315.945312 C 315.238281 318.042969 313.089844 320.09375 310.886719 322.085938 C 308.6875 324.082031 306.4375 326.023438 304.140625 327.90625 C 301.847656 329.789062 299.503906 331.617188 297.121094 333.386719 C 294.734375 335.15625 292.304688 336.867188 289.835938 338.515625 C 287.367188 340.167969 284.855469 341.753906 282.308594 343.28125 C 279.761719 344.808594 277.179688 346.273438 274.558594 347.671875 C 271.9375 349.074219 269.285156 350.410156 266.601562 351.679688 C 263.917969 352.949219 261.203125 354.152344 258.457031 355.289062 C 255.710938 356.425781 252.941406 357.496094 250.144531 358.496094 C 247.347656 359.496094 244.527344 360.425781 241.6875 361.289062 C 238.84375 362.152344 235.980469 362.945312 233.101562 363.664062 C 230.21875 364.386719 227.320312 365.039062 224.410156 365.617188 C 221.496094 366.195312 218.570312 366.703125 215.632812 367.140625 C 212.691406 367.574219 209.746094 367.941406 206.789062 368.230469 C 203.835938 368.523438 200.871094 368.742188 197.90625 368.886719 C 194.9375 369.03125 191.96875 369.105469 189 369.105469 C 186.03125 369.105469 183.0625 369.03125 180.09375 368.886719 C 177.128906 368.742188 174.164062 368.523438 171.210938 368.230469 C 168.253906 367.941406 165.308594 367.574219 162.367188 367.140625 C 159.429688 366.703125 156.503906 366.195312 153.589844 365.617188 C 150.679688 365.039062 147.78125 364.386719 144.898438 363.664062 C 142.019531 362.945312 139.15625 362.152344 136.3125 361.289062 C 133.472656 360.425781 130.652344 359.496094 127.855469 358.496094 C 125.058594 357.496094 122.289062 356.425781 119.542969 355.289062 C 116.796875 354.152344 114.082031 352.949219 111.398438 351.679688 C 108.714844 350.410156 106.0625 349.074219 103.441406 347.671875 C 100.820312 346.273438 98.238281 344.808594 95.691406 343.28125 C 93.140625 341.753906 90.632812 340.167969 88.164062 338.515625 C 85.695312 336.867188 83.265625 335.15625 80.878906 333.386719 C 78.496094 331.617188 76.152344 329.789062 73.859375 327.90625 C 71.5625 326.023438 69.3125 324.082031 67.113281 322.085938 C 64.910156 320.09375 62.761719 318.042969 60.660156 315.945312 C 58.558594 313.84375 56.511719 311.695312 54.515625 309.492188 C 52.523438 307.292969 50.582031 305.042969 48.699219 302.746094 C 46.8125 300.449219 44.988281 298.109375 43.21875 295.722656 C 41.449219 293.339844 39.738281 290.910156 38.089844 288.441406 C 36.4375 285.972656 34.847656 283.460938 33.320312 280.914062 C 31.796875 278.367188 30.332031 275.78125 28.929688 273.164062 C 27.53125 270.542969 26.195312 267.890625 24.925781 265.207031 C 23.65625 262.519531 22.453125 259.804688 21.316406 257.0625 C 20.179688 254.316406 19.109375 251.546875 18.109375 248.75 C 17.109375 245.953125 16.175781 243.132812 15.316406 240.292969 C 14.453125 237.449219 13.660156 234.585938 12.9375 231.707031 C 12.21875 228.824219 11.566406 225.925781 10.988281 223.011719 C 10.40625 220.101562 9.898438 217.175781 9.464844 214.234375 C 9.027344 211.296875 8.664062 208.351562 8.375 205.394531 C 8.082031 202.4375 7.863281 199.476562 7.71875 196.511719 C 7.574219 193.542969 7.5 190.574219 7.5 187.605469 C 7.5 184.632812 7.574219 181.664062 7.71875 178.699219 C 7.863281 175.730469 8.082031 172.769531 8.375 169.816406 C 8.664062 166.859375 9.027344 163.910156 9.464844 160.972656 C 9.898438 158.035156 10.40625 155.109375 10.988281 152.195312 C 11.566406 149.28125 12.21875 146.386719 12.9375 143.503906 C 13.660156 140.621094 14.453125 137.761719 15.316406 134.917969 C 16.175781 132.074219 17.109375 129.257812 18.109375 126.460938 C 19.109375 123.664062 20.179688 120.890625 21.316406 118.148438 C 22.453125 115.402344 23.65625 112.6875 24.925781 110.003906 C 26.195312 107.316406 27.53125 104.664062 28.929688 102.046875 C 30.332031 99.425781 31.796875 96.84375 33.320312 94.296875 C 34.847656 91.746094 36.4375 89.238281 38.089844 86.769531 C 39.738281 84.300781 41.449219 81.871094 43.21875 79.484375 C 44.988281 77.097656 46.8125 74.757812 48.699219 72.460938 C 50.582031 70.167969 52.523438 67.917969 54.515625 65.714844 C 56.511719 63.515625 58.558594 61.363281 60.660156 59.265625 C 62.761719 57.164062 64.910156 55.117188 67.113281 53.121094 C 69.3125 51.128906 71.5625 49.1875 73.859375 47.304688 C 76.152344 45.417969 78.496094 43.59375 80.878906 41.824219 C 83.265625 40.054688 85.695312 38.34375 88.164062 36.691406 C 90.632812 35.042969 93.140625 33.453125 95.691406 31.925781 C 98.238281 30.398438 100.820312 28.9375 103.441406 27.535156 C 106.0625 26.136719 108.714844 24.800781 111.398438 23.53125 C 114.082031 22.261719 116.796875 21.058594 119.542969 19.921875 C 122.289062 18.785156 125.058594 17.714844 127.855469 16.714844 C 130.652344 15.714844 133.472656 14.78125 136.3125 13.921875 C 139.15625 13.058594 142.019531 12.265625 144.898438 11.542969 C 147.78125 10.820312 150.679688 10.171875 153.589844 9.59375 C 156.503906 9.011719 159.429688 8.503906 162.367188 8.070312 C 165.308594 7.632812 168.253906 7.269531 171.210938 6.980469 C 174.164062 6.6875 177.128906 6.46875 180.09375 6.324219 C 183.0625 6.175781 186.03125 6.105469 189 6.105469 C 191.96875 6.105469 194.9375 6.175781 197.90625 6.324219 C 200.871094 6.46875 203.835938 6.6875 206.789062 6.980469 C 209.746094 7.269531 212.691406 7.632812 215.632812 8.070312 C 218.570312 8.503906 221.496094 9.011719 224.410156 9.59375 C 227.320312 10.171875 230.21875 10.820312 233.101562 11.542969 C 235.980469 12.265625 238.84375 13.058594 241.6875 13.921875 C 244.527344 14.78125 247.347656 15.714844 250.144531 16.714844 C 252.941406 17.714844 255.710938 18.785156 258.457031 19.921875 C 261.203125 21.058594 263.917969 22.261719 266.601562 23.53125 C 269.285156 24.800781 271.9375 26.136719 274.558594 27.535156 C 277.179688 28.9375 279.761719 30.398438 282.308594 31.925781 C 284.855469 33.453125 287.367188 35.042969 289.835938 36.691406 C 292.304688 38.34375 294.734375 40.054688 297.121094 41.824219 C 299.503906 43.59375 301.847656 45.417969 304.140625 47.304688 C 306.4375 49.1875 308.6875 51.128906 310.886719 53.121094 C 313.089844 55.117188 315.238281 57.164062 317.339844 59.265625 C 319.441406 61.363281 321.488281 63.515625 323.484375 65.714844 C 325.476562 67.917969 327.417969 70.167969 329.300781 72.460938 C 331.1875 74.757812 333.011719 77.097656 334.78125 79.484375 C 336.550781 81.871094 338.261719 84.300781 339.910156 86.769531 C 341.5625 89.238281 343.152344 91.746094 344.679688 94.296875 C 346.203125 96.84375 347.667969 99.425781 349.070312 102.046875 C 350.46875 104.664062 351.804688 107.316406 353.074219 110.003906 C 354.34375 112.6875 355.546875 115.402344 356.683594 118.148438 C 357.820312 120.890625 358.890625 123.664062 359.890625 126.460938 C 360.890625 129.257812 361.824219 132.074219 362.683594 134.917969 C 363.546875 137.761719 364.339844 140.621094 365.0625 143.503906 C 365.78125 146.386719 366.433594 149.28125 367.011719 152.195312 C 367.59375 155.109375 368.101562 158.035156 368.535156 160.972656 C 368.972656 163.910156 369.335938 166.859375 369.625 169.816406 C 369.917969 172.769531 370.136719 175.730469 370.28125 178.699219 C 370.425781 181.664062 370.5 184.632812 370.5 187.605469 Z M 370.5 187.605469 "/></clipPath><linearGradient x1="-0.000000000860882" gradientTransform="matrix(362.999991,0,0,362.999991,7.500004,6.10465)" y1="0.5" x2="1" gradientUnits="userSpaceOnUse" y2="0.5" id="19498d519d"><stop style="stop-color:#65c88b;stop-opacity:1;" offset="0"/><stop style="stop-color:#65c88b;stop-opacity:1;" offset="0.015625"/><stop style="stop-color:#64c78b;stop-opacity:1;" offset="0.03125"/><stop style="stop-color:#64c68b;stop-opacity:1;" offset="0.046875"/><stop style="stop-color:#63c58a;stop-opacity:1;" offset="0.0625"/><stop style="stop-color:#63c48a;stop-opacity:1;" offset="0.078125"/><stop style="stop-color:#62c48a;stop-opacity:1;" offset="0.09375"/><stop style="stop-color:#61c38a;stop-opacity:1;" offset="0.109375"/><stop style="stop-color:#61c28a;stop-opacity:1;" offset="0.125"/><stop style="stop-color:#60c189;stop-opacity:1;" offset="0.140625"/><stop style="stop-color:#60c089;stop-opacity:1;" offset="0.15625"/><stop style="stop-color:#5fc089;stop-opacity:1;" offset="0.171875"/><stop style="stop-color:#5fbf89;stop-opacity:1;" offset="0.1875"/><stop style="stop-color:#5ebe89;stop-opacity:1;" offset="0.203125"/><stop style="stop-color:#5ebd88;stop-opacity:1;" offset="0.21875"/><stop style="stop-color:#5dbc88;stop-opacity:1;" offset="0.234375"/><stop style="stop-color:#5dbc88;stop-opacity:1;" offset="0.25"/><stop style="stop-color:#5cbb88;stop-opacity:1;" offset="0.265625"/><stop style="stop-color:#5bba88;stop-opacity:1;" offset="0.28125"/><stop style="stop-color:#5bb988;stop-opacity:1;" offset="0.296875"/><stop style="stop-color:#5ab887;stop-opacity:1;" offset="0.3125"/><stop style="stop-color:#5ab887;stop-opacity:1;" offset="0.328125"/><stop style="stop-color:#59b787;stop-opacity:1;" offset="0.34375"/><stop style="stop-color:#59b687;stop-opacity:1;" offset="0.359375"/><stop style="stop-color:#58b587;stop-opacity:1;" offset="0.375"/><stop style="stop-color:#58b486;stop-opacity:1;" offset="0.390625"/><stop style="stop-color:#57b486;stop-opacity:1;" offset="0.40625"/><stop style="stop-color:#57b386;stop-opacity:1;" offset="0.421875"/><stop style="stop-color:#56b286;stop-opacity:1;" offset="0.4375"/><stop style="stop-color:#55b186;stop-opacity:1;" offset="0.453125"/><stop style="stop-color:#55b085;stop-opacity:1;" offset="0.46875"/><stop style="stop-color:#54b085;stop-opacity:1;" offset="0.484375"/><stop style="stop-color:#54af85;stop-opacity:1;" offset="0.5"/><stop style="stop-color:#53ae85;stop-opacity:1;" offset="0.515625"/><stop style="stop-color:#53ad85;stop-opacity:1;" offset="0.53125"/><stop style="stop-color:#52ac84;stop-opacity:1;" offset="0.546875"/><stop style="stop-color:#52ac84;stop-opacity:1;" offset="0.5625"/><stop style="stop-color:#51ab84;stop-opacity:1;" offset="0.578125"/><stop style="stop-color:#51aa84;stop-opacity:1;" offset="0.59375"/><stop style="stop-color:#50a984;stop-opacity:1;" offset="0.609375"/><stop style="stop-color:#4fa883;stop-opacity:1;" offset="0.625"/><stop style="stop-color:#4fa883;stop-opacity:1;" offset="0.640625"/><stop style="stop-color:#4ea783;stop-opacity:1;" offset="0.65625"/><stop style="stop-color:#4ea683;stop-opacity:1;" offset="0.671875"/><stop style="stop-color:#4da582;stop-opacity:1;" offset="0.6875"/><stop style="stop-color:#4da482;stop-opacity:1;" offset="0.703125"/><stop style="stop-color:#4ca482;stop-opacity:1;" offset="0.71875"/><stop style="stop-color:#4ca382;stop-opacity:1;" offset="0.734375"/><stop style="stop-color:#4ba282;stop-opacity:1;" offset="0.75"/><stop style="stop-color:#4ba181;stop-opacity:1;" offset="0.765625"/><stop style="stop-color:#4aa081;stop-opacity:1;" offset="0.78125"/><stop style="stop-color:#49a081;stop-opacity:1;" offset="0.796875"/><stop style="stop-color:#499f81;stop-opacity:1;" offset="0.8125"/><stop style="stop-color:#489e80;stop-opacity:1;" offset="0.828125"/><stop style="stop-color:#489d80;stop-opacity:1;" offset="0.84375"/><stop style="stop-color:#479c80;stop-opacity:1;" offset="0.859375"/><stop style="stop-color:#479c80;stop-opacity:1;" offset="0.875"/><stop style="stop-color:#469b80;stop-opacity:1;" offset="0.890625"/><stop style="stop-color:#469a7f;stop-opacity:1;" offset="0.90625"/><stop style="stop-color:#45997f;stop-opacity:1;" offset="0.921875"/><stop style="stop-color:#45997f;stop-opacity:1;" offset="0.9375"/><stop style="stop-color:#44987f;stop-opacity:1;" offset="0.953125"/><stop style="stop-color:#43977f;stop-opacity:1;" offset="0.96875"/><stop style="stop-color:#43967e;stop-opacity:1;" offset="0.984375"/><stop style="stop-color:#42957e;stop-opacity:1;" offset="1"/></linearGradient><linearGradient x1="-0.000000000860882" gradientTransform="matrix(362.999991,0,0,362.999991,7.500004,6.10465)" y1="0.5" x2="1" gradientUnits="userSpaceOnUse" y2="0.5" id="33412c0699"><stop style="stop-color:#65c88b;stop-opacity:1;" offset="0"/><stop style="stop-color:#65c88b;stop-opacity:1;" offset="0.015625"/><stop style="stop-color:#64c78b;stop-opacity:1;" offset="0.03125"/><stop style="stop-color:#64c68b;stop-opacity:1;" offset="0.046875"/><stop style="stop-color:#63c58a;stop-opacity:1;" offset="0.0625"/><stop style="stop-color:#63c48a;stop-opacity:1;" offset="0.078125"/><stop style="stop-color:#62c48a;stop-opacity:1;" offset="0.09375"/><stop style="stop-color:#61c38a;stop-opacity:1;" offset="0.109375"/><stop style="stop-color:#61c28a;stop-opacity:1;" offset="0.125"/><stop style="stop-color:#60c189;stop-opacity:1;" offset="0.140625"/><stop style="stop-color:#60c089;stop-opacity:1;" offset="0.15625"/><stop style="stop-color:#5fc089;stop-opacity:1;" offset="0.171875"/><stop style="stop-color:#5fbf89;stop-opacity:1;" offset="0.1875"/><stop style="stop-color:#5ebe89;stop-opacity:1;" offset="0.203125"/><stop style="stop-color:#5ebd88;stop-opacity:1;" offset="0.21875"/><stop style="stop-color:#5dbc88;stop-opacity:1;" offset="0.234375"/><stop style="stop-color:#5dbc88;stop-opacity:1;" offset="0.25"/><stop style="stop-color:#5cbb88;stop-opacity:1;" offset="0.265625"/><stop style="stop-color:#5bba88;stop-opacity:1;" offset="0.28125"/><stop style="stop-color:#5bb988;stop-opacity:1;" offset="0.296875"/><stop style="stop-color:#5ab887;stop-opacity:1;" offset="0.3125"/><stop style="stop-color:#5ab887;stop-opacity:1;" offset="0.328125"/><stop style="stop-color:#59b787;stop-opacity:1;" offset="0.34375"/><stop style="stop-color:#59b687;stop-opacity:1;" offset="0.359375"/><stop style="stop-color:#58b587;stop-opacity:1;" offset="0.375"/><stop style="stop-color:#58b486;stop-opacity:1;" offset="0.390625"/><stop style="stop-color:#57b486;stop-opacity:1;" offset="0.40625"/><stop style="stop-color:#57b386;stop-opacity:1;" offset="0.421875"/><stop style="stop-color:#56b286;stop-opacity:1;" offset="0.4375"/><stop style="stop-color:#55b186;stop-opacity:1;" offset="0.453125"/><stop style="stop-color:#55b085;stop-opacity:1;" offset="0.46875"/><stop style="stop-color:#54b085;stop-opacity:1;" offset="0.484375"/><stop style="stop-color:#54af85;stop-opacity:1;" offset="0.5"/><stop style="stop-color:#53ae85;stop-opacity:1;" offset="0.515625"/><stop style="stop-color:#53ad85;stop-opacity:1;" offset="0.53125"/><stop style="stop-color:#52ac84;stop-opacity:1;" offset="0.546875"/><stop style="stop-color:#52ac84;stop-opacity:1;" offset="0.5625"/><stop style="stop-color:#51ab84;stop-opacity:1;" offset="0.578125"/><stop style="stop-color:#51aa84;stop-opacity:1;" offset="0.59375"/><stop style="stop-color:#50a984;stop-opacity:1;" offset="0.609375"/><stop style="stop-color:#4fa883;stop-opacity:1;" offset="0.625"/><stop style="stop-color:#4fa883;stop-opacity:1;" offset="0.640625"/><stop style="stop-color:#4ea783;stop-opacity:1;" offset="0.65625"/><stop style="stop-color:#4ea683;stop-opacity:1;" offset="0.671875"/><stop style="stop-color:#4da582;stop-opacity:1;" offset="0.6875"/><stop style="stop-color:#4da482;stop-opacity:1;" offset="0.703125"/><stop style="stop-color:#4ca482;stop-opacity:1;" offset="0.71875"/><stop style="stop-color:#4ca382;stop-opacity:1;" offset="0.734375"/><stop style="stop-color:#4ba282;stop-opacity:1;" offset="0.75"/><stop style="stop-color:#4ba181;stop-opacity:1;" offset="0.765625"/><stop style="stop-color:#4aa081;stop-opacity:1;" offset="0.78125"/><stop style="stop-color:#49a081;stop-opacity:1;" offset="0.796875"/><stop style="stop-color:#499f81;stop-opacity:1;" offset="0.8125"/><stop style="stop-color:#489e80;stop-opacity:1;" offset="0.828125"/><stop style="stop-color:#489d80;stop-opacity:1;" offset="0.84375"/><stop style="stop-color:#479c80;stop-opacity:1;" offset="0.859375"/><stop style="stop-color:#479c80;stop-opacity:1;" offset="0.875"/><stop style="stop-color:#469b80;stop-opacity:1;" offset="0.890625"/><stop style="stop-color:#469a7f;stop-opacity:1;" offset="0.90625"/><stop style="stop-color:#45997f;stop-opacity:1;" offset="0.921875"/><stop style="stop-color:#45997f;stop-opacity:1;" offset="0.9375"/><stop style="stop-color:#44987f;stop-opacity:1;" offset="0.953125"/><stop style="stop-color:#43977f;stop-opacity:1;" offset="0.96875"/><stop style="stop-color:#43967e;stop-opacity:1;" offset="0.984375"/><stop style="stop-color:#42957e;stop-opacity:1;" offset="1"/></linearGradient><clipPath id="50224901b6"><path d="M 102.472656 151.746094 L 234.15625 151.746094 L 234.15625 218.894531 L 102.472656 218.894531 Z M 102.472656 151.746094 "/></clipPath><clipPath id="14f1a5c829"><path d="M 137.144531 163.746094 L 246.15625 163.746094 L 246.15625 230.894531 L 137.144531 230.894531 Z M 137.144531 163.746094 "/></clipPath></defs><g id="2578b19f6d"><g clip-rule="nonzero" clip-path="url(#9a0ddffc79)"><g clip-rule="nonzero" clip-path="url(#9ff20739ae)"><path style=" stroke:none;fill-rule:nonzero;fill:url(#19498d519d);" d="M 7.5 6.105469 L 7.5 369.105469 L 370.5 369.105469 L 370.5 6.105469 Z M 7.5 6.105469 "/><path style=" stroke:none;fill-rule:nonzero;fill:url(#33412c0699);" d="M 7.5 6.105469 L 7.5 369.105469 L 370.5 369.105469 L 370.5 6.105469 Z M 7.5 6.105469 "/></g></g><path style=" stroke:none;fill-rule:evenodd;fill:#ffffff;fill-opacity:1;" d="M 291.09375 303.765625 L 124.566406 303.765625 C 120.484375 303.765625 117.308594 300.589844 117.308594 296.050781 L 117.308594 284.253906 L 121.390625 284.253906 C 125.929688 284.253906 130.011719 281.53125 132.28125 277.902344 L 175.386719 277.902344 C 177.65625 277.902344 179.472656 276.085938 179.472656 273.816406 C 179.472656 271.546875 177.65625 269.734375 175.386719 269.734375 L 133.640625 269.734375 L 133.640625 259.75 L 249.800781 259.75 C 252.070312 259.75 253.886719 257.9375 253.886719 255.667969 C 253.886719 253.398438 252.070312 251.582031 249.800781 251.582031 L 133.640625 251.582031 L 133.640625 243.414062 L 247.988281 243.414062 C 256.609375 243.414062 262.960938 236.15625 262.960938 227.535156 L 262.960938 159.925781 C 262.960938 151.757812 256.609375 144.042969 247.988281 144.042969 L 117.308594 144.042969 L 117.308594 79.160156 C 117.308594 74.621094 120.484375 71.445312 124.566406 71.445312 L 237.097656 71.445312 L 237.097656 125.441406 C 237.097656 129.523438 240.726562 132.699219 244.8125 132.699219 L 298.808594 132.699219 L 298.808594 296.050781 C 298.808594 300.589844 295.175781 303.765625 291.09375 303.765625 Z M 277.480469 259.75 L 264.777344 259.75 C 262.507812 259.75 260.691406 257.9375 260.691406 255.667969 C 260.691406 253.398438 262.507812 251.582031 264.777344 251.582031 L 277.480469 251.582031 C 279.75 251.582031 281.566406 253.398438 281.566406 255.667969 C 281.566406 257.9375 279.75 259.75 277.480469 259.75 Z M 277.480469 277.902344 L 190.816406 277.902344 C 188.546875 277.902344 186.730469 276.085938 186.730469 273.816406 C 186.730469 271.546875 188.546875 269.734375 190.816406 269.734375 L 277.480469 269.734375 C 279.75 269.734375 281.566406 271.546875 281.566406 273.816406 C 281.566406 276.085938 279.75 277.902344 277.480469 277.902344 Z M 277.480469 295.597656 L 233.921875 295.597656 C 231.652344 295.597656 229.835938 293.78125 229.835938 291.511719 C 229.835938 289.246094 231.652344 287.429688 233.921875 287.429688 L 277.480469 287.429688 C 279.75 287.429688 281.566406 289.246094 281.566406 291.511719 C 281.566406 293.78125 279.75 295.597656 277.480469 295.597656 Z M 218.949219 295.597656 L 138.179688 295.597656 C 135.910156 295.597656 134.097656 293.78125 134.097656 291.511719 C 134.097656 289.246094 135.910156 287.429688 138.179688 287.429688 L 218.949219 287.429688 C 220.761719 287.429688 223.03125 289.246094 223.03125 291.511719 C 223.03125 293.78125 221.214844 295.597656 218.949219 295.597656 Z M 218.039062 129.976562 L 144.53125 129.976562 C 139.996094 129.976562 136.363281 126.347656 136.363281 121.8125 L 136.363281 94.132812 C 136.363281 89.59375 139.996094 85.964844 144.53125 85.964844 L 218.039062 85.964844 C 222.578125 85.964844 226.207031 89.59375 226.207031 94.132812 L 226.207031 121.8125 C 226.207031 126.347656 222.578125 129.976562 218.039062 129.976562 Z M 218.039062 94.132812 L 144.53125 94.132812 L 144.53125 121.8125 L 218.039062 121.8125 Z M 245.265625 73.714844 L 296.085938 124.535156 L 245.265625 124.535156 Z M 245.265625 73.714844 "/><path style=" stroke:none;fill-rule:evenodd;fill:#ffffff;fill-opacity:1;" d="M 79.191406 229.351562 L 79.191406 176.714844 C 79.191406 163.554688 88.722656 152.210938 100.519531 152.210938 L 247.988281 152.210938 C 251.617188 152.210938 254.792969 155.84375 254.792969 159.925781 L 254.792969 227.535156 C 254.792969 232.070312 251.617188 235.25 247.988281 235.25 L 133.640625 235.25 L 133.640625 231.164062 C 133.640625 224.359375 128.199219 218.914062 121.390625 218.914062 L 112.316406 218.914062 C 112.769531 218.460938 113.675781 217.097656 113.675781 216.191406 L 113.675781 171.722656 C 113.675781 169.453125 111.863281 167.640625 109.59375 167.640625 C 107.324219 167.640625 105.511719 169.453125 105.511719 171.722656 L 105.511719 216.191406 C 105.511719 217.097656 105.964844 218.460938 106.871094 218.914062 L 102.332031 218.914062 C 93.257812 218.914062 85.089844 222.996094 79.191406 229.351562 Z M 202.613281 220.273438 C 188.546875 220.273438 176.75 208.476562 176.75 193.957031 C 176.75 179.4375 188.546875 167.640625 202.613281 167.640625 C 217.132812 167.640625 228.929688 179.4375 228.929688 193.957031 C 228.929688 208.476562 217.132812 220.273438 202.613281 220.273438 Z M 202.613281 175.808594 C 192.628906 175.808594 184.917969 183.976562 184.917969 193.957031 C 184.917969 203.941406 192.628906 212.105469 202.613281 212.105469 C 212.59375 212.105469 220.761719 203.941406 220.761719 193.957031 C 220.761719 183.976562 212.59375 175.808594 202.613281 175.808594 Z M 149.523438 220.273438 C 142.71875 220.273438 135.910156 217.550781 130.921875 212.5625 C 126.382812 207.570312 123.660156 200.761719 123.660156 193.957031 C 123.660156 186.695312 126.382812 180.34375 130.921875 175.351562 C 135.910156 170.363281 142.71875 167.640625 149.523438 167.640625 C 156.785156 167.640625 163.136719 170.363281 168.128906 175.351562 C 169.941406 176.714844 169.941406 179.4375 168.128906 181.253906 C 166.765625 182.613281 164.042969 182.613281 162.230469 181.253906 C 159.050781 177.621094 154.515625 175.808594 149.523438 175.808594 C 144.984375 175.808594 140.449219 177.621094 136.820312 181.253906 C 133.640625 184.429688 131.828125 188.964844 131.828125 193.957031 C 131.828125 198.496094 133.640625 203.03125 136.820312 206.664062 C 140.449219 209.839844 144.984375 212.105469 149.523438 212.105469 C 154.515625 212.105469 159.050781 209.839844 162.230469 206.664062 C 164.042969 204.847656 166.765625 204.847656 168.128906 206.664062 C 169.941406 208.023438 169.941406 210.746094 168.128906 212.5625 C 163.136719 217.550781 156.785156 220.273438 149.523438 220.273438 Z M 149.523438 220.273438 "/><path style=" stroke:none;fill-rule:evenodd;fill:#ffffff;fill-opacity:1;" d="M 121.390625 276.085938 L 102.332031 276.085938 C 89.628906 276.085938 79.191406 265.648438 79.191406 252.945312 L 79.191406 250.222656 C 79.191406 237.515625 89.628906 227.082031 102.332031 227.082031 L 121.390625 227.082031 C 123.660156 227.082031 125.476562 228.894531 125.476562 231.164062 L 125.476562 272.003906 C 125.476562 274.269531 123.660156 276.085938 121.390625 276.085938 Z M 121.390625 276.085938 "/><g clip-rule="nonzero" clip-path="url(#50224901b6)"><path style=" stroke:none;fill-rule:nonzero;fill:#ffffff;fill-opacity:1;" d="M 102.472656 151.746094 L 234.148438 151.746094 L 234.148438 218.894531 L 102.472656 218.894531 Z M 102.472656 151.746094 "/></g><g clip-rule="nonzero" clip-path="url(#14f1a5c829)"><path style=" stroke:none;fill-rule:nonzero;fill:#ffffff;fill-opacity:1;" d="M 137.144531 163.746094 L 246.265625 163.746094 L 246.265625 230.894531 L 137.144531 230.894531 Z M 137.144531 163.746094 "/></g><g style="fill:#51ab84;fill-opacity:1;"><g transform="translate(89.471072, 203.030007)"><path style="stroke:none" d="M 3.328125 0 L 3.328125 -26.5 L 8.953125 -26.5 L 8.953125 -4.640625 L 19.703125 -4.640625 L 19.703125 0 Z M 3.328125 0 "/></g></g><g style="fill:#51ab84;fill-opacity:1;"><g transform="translate(110.44318, 203.030007)"><path style="stroke:none" d="M 18.59375 0 L 3.328125 0 L 3.328125 -26.5 L 18.59375 -26.5 L 18.59375 -21.890625 L 8.953125 -21.890625 L 8.953125 -16.078125 L 17.921875 -16.078125 L 17.921875 -11.46875 L 8.953125 -11.46875 L 8.953125 -4.640625 L 18.59375 -4.640625 Z M 18.59375 0 "/></g></g><g style="fill:#51ab84;fill-opacity:1;"><g transform="translate(131.234024, 203.030007)"><path style="stroke:none" d="M 18.453125 -26.5 L 24.125 -26.5 L 15.125 0 L 8.984375 0 L 0 -26.5 L 5.671875 -26.5 L 10.65625 -10.734375 C 10.9375 -9.796875 11.222656 -8.707031 11.515625 -7.46875 C 11.816406 -6.238281 12.003906 -5.378906 12.078125 -4.890625 C 12.203125 -6.003906 12.65625 -7.953125 13.4375 -10.734375 Z M 18.453125 -26.5 "/></g></g><g style="fill:#51ab84;fill-opacity:1;"><g transform="translate(155.360104, 203.030007)"><path style="stroke:none" d="M 18.59375 0 L 3.328125 0 L 3.328125 -26.5 L 18.59375 -26.5 L 18.59375 -21.890625 L 8.953125 -21.890625 L 8.953125 -16.078125 L 17.921875 -16.078125 L 17.921875 -11.46875 L 8.953125 -11.46875 L 8.953125 -4.640625 L 18.59375 -4.640625 Z M 18.59375 0 "/></g></g><g style="fill:#51ab84;fill-opacity:1;"><g transform="translate(176.150948, 203.030007)"><path style="stroke:none" d="M 8.953125 -14.734375 L 10.765625 -14.734375 C 12.546875 -14.734375 13.859375 -15.03125 14.703125 -15.625 C 15.546875 -16.21875 15.96875 -17.148438 15.96875 -18.421875 C 15.96875 -19.671875 15.535156 -20.5625 14.671875 -21.09375 C 13.804688 -21.625 12.46875 -21.890625 10.65625 -21.890625 L 8.953125 -21.890625 Z M 8.953125 -10.171875 L 8.953125 0 L 3.328125 0 L 3.328125 -26.5 L 11.0625 -26.5 C 14.65625 -26.5 17.316406 -25.84375 19.046875 -24.53125 C 20.773438 -23.21875 21.640625 -21.226562 21.640625 -18.5625 C 21.640625 -17 21.207031 -15.609375 20.34375 -14.390625 C 19.488281 -13.179688 18.28125 -12.234375 16.71875 -11.546875 C 20.707031 -5.585938 23.304688 -1.738281 24.515625 0 L 18.265625 0 L 11.953125 -10.171875 Z M 8.953125 -10.171875 "/></g></g><g style="fill:#51ab84;fill-opacity:1;"><g transform="translate(200.657674, 203.030007)"><path style="stroke:none" d="M 27.390625 -13.28125 C 27.390625 -8.894531 26.300781 -5.523438 24.125 -3.171875 C 21.945312 -0.816406 18.832031 0.359375 14.78125 0.359375 C 10.71875 0.359375 7.597656 -0.816406 5.421875 -3.171875 C 3.242188 -5.523438 2.15625 -8.910156 2.15625 -13.328125 C 2.15625 -17.734375 3.242188 -21.097656 5.421875 -23.421875 C 7.609375 -25.753906 10.738281 -26.921875 14.8125 -26.921875 C 18.882812 -26.921875 22 -25.75 24.15625 -23.40625 C 26.3125 -21.0625 27.390625 -17.6875 27.390625 -13.28125 Z M 8.046875 -13.28125 C 8.046875 -10.320312 8.609375 -8.09375 9.734375 -6.59375 C 10.859375 -5.09375 12.539062 -4.34375 14.78125 -4.34375 C 19.257812 -4.34375 21.5 -7.320312 21.5 -13.28125 C 21.5 -19.257812 19.269531 -22.25 14.8125 -22.25 C 12.570312 -22.25 10.882812 -21.492188 9.75 -19.984375 C 8.613281 -18.484375 8.046875 -16.25 8.046875 -13.28125 Z M 8.046875 -13.28125 "/></g></g><g style="fill:#51ab84;fill-opacity:1;"><g transform="translate(230.203505, 203.030007)"><path style="stroke:none" d="M 18.984375 -7.359375 C 18.984375 -4.960938 18.117188 -3.078125 16.390625 -1.703125 C 14.671875 -0.328125 12.273438 0.359375 9.203125 0.359375 C 6.378906 0.359375 3.878906 -0.171875 1.703125 -1.234375 L 1.703125 -6.453125 C 3.492188 -5.648438 5.007812 -5.085938 6.25 -4.765625 C 7.488281 -4.441406 8.617188 -4.28125 9.640625 -4.28125 C 10.878906 -4.28125 11.828125 -4.515625 12.484375 -4.984375 C 13.140625 -5.453125 13.46875 -6.15625 13.46875 -7.09375 C 13.46875 -7.613281 13.320312 -8.070312 13.03125 -8.46875 C 12.738281 -8.875 12.3125 -9.265625 11.75 -9.640625 C 11.1875 -10.015625 10.046875 -10.613281 8.328125 -11.4375 C 6.703125 -12.195312 5.484375 -12.925781 4.671875 -13.625 C 3.867188 -14.332031 3.222656 -15.148438 2.734375 -16.078125 C 2.253906 -17.003906 2.015625 -18.09375 2.015625 -19.34375 C 2.015625 -21.6875 2.804688 -23.53125 4.390625 -24.875 C 5.984375 -26.21875 8.179688 -26.890625 10.984375 -26.890625 C 12.359375 -26.890625 13.671875 -26.722656 14.921875 -26.390625 C 16.171875 -26.066406 17.484375 -25.609375 18.859375 -25.015625 L 17.046875 -20.640625 C 15.628906 -21.222656 14.457031 -21.628906 13.53125 -21.859375 C 12.601562 -22.085938 11.691406 -22.203125 10.796875 -22.203125 C 9.734375 -22.203125 8.914062 -21.953125 8.34375 -21.453125 C 7.78125 -20.960938 7.5 -20.316406 7.5 -19.515625 C 7.5 -19.023438 7.613281 -18.59375 7.84375 -18.21875 C 8.070312 -17.851562 8.4375 -17.5 8.9375 -17.15625 C 9.445312 -16.8125 10.640625 -16.191406 12.515625 -15.296875 C 14.984375 -14.109375 16.675781 -12.921875 17.59375 -11.734375 C 18.519531 -10.546875 18.984375 -9.085938 18.984375 -7.359375 Z M 18.984375 -7.359375 "/></g></g></g></svg>