<svg version="1.1" viewBox="0.0 0.0 960.0 540.0" fill="none" stroke="none" stroke-linecap="square" stroke-miterlimit="10" xmlns:xlink="http://www.w3.org/1999/xlink" xmlns="http://www.w3.org/2000/svg"><clipPath id="g366bcb649b3_0_0.0"><path d="m0 0l960.0 0l0 540.0l-960.0 0l0 -540.0z" clip-rule="nonzero"/></clipPath><g clip-path="url(#g366bcb649b3_0_0.0)"><path fill="#000000" fill-opacity="0.0" d="m0 0l960.0 0l0 540.0l-960.0 0z" fill-rule="evenodd"/><path fill="#000000" fill-opacity="0.0" d="m193.74759 17.244022c0 4.3756065 -3.6474762 8.016275 -8.023071 8.016275c-4.4572754 0 -8.023087 -3.6406689 -8.023087 -8.016275c0 -4.457266 3.5658112 -8.023079 8.023087 -8.023079c4.375595 0 8.023071 3.565813 8.023071 8.023079z" fill-rule="evenodd"/><path stroke="#ffc400" stroke-width="4.0" stroke-miterlimit="11.906" stroke-linecap="butt" d="m193.74759 17.244022c0 4.3756065 -3.6474762 8.016275 -8.023071 8.016275c-4.4572754 0 -8.023087 -3.6406689 -8.023087 -8.016275c0 -4.457266 3.5658112 -8.023079 8.023087 -8.023079c4.375595 0 8.023071 3.565813 8.023071 8.023079z" fill-rule="evenodd"/><path fill="#000000" fill-opacity="0.0" d="m233.69286 17.244022c0 4.3756065 -3.5658112 8.016275 -8.023071 8.016275c-4.3756104 0 -8.023087 -3.6406689 -8.023087 -8.016275c0 -4.457266 3.6474762 -8.023079 8.023087 -8.023079c4.45726 0 8.023071 3.565813 8.023071 8.023079z" fill-rule="evenodd"/><path stroke="#e7ce1c" stroke-width="4.0" stroke-miterlimit="11.906" stroke-linecap="butt" d="m233.69286 17.244022c0 4.3756065 -3.5658112 8.016275 -8.023071 8.016275c-4.3756104 0 -8.023087 -3.6406689 -8.023087 -8.016275c0 -4.457266 3.6474762 -8.023079 8.023087 -8.023079c4.45726 0 8.023071 3.565813 8.023071 8.023079z" fill-rule="evenodd"/><path fill="#000000" fill-opacity="0.0" d="m273.63132 17.244022c0 4.3756065 -3.5589905 8.016275 -8.016266 8.016275c-4.3756104 0 -8.023071 -3.6406689 -8.023071 -8.016275c0 -4.457266 3.647461 -8.023079 8.023071 -8.023079c4.4572754 0 8.016266 3.565813 8.016266 8.023079z" fill-rule="evenodd"/><path stroke="#cfd837" stroke-width="4.0" stroke-miterlimit="11.906" stroke-linecap="butt" d="m273.63132 17.244022c0 4.3756065 -3.5589905 8.016275 -8.016266 8.016275c-4.3756104 0 -8.023071 -3.6406689 -8.023071 -8.016275c0 -4.457266 3.647461 -8.023079 8.023071 -8.023079c4.4572754 0 8.016266 3.565813 8.016266 8.023079z" fill-rule="evenodd"/><path fill="#000000" fill-opacity="0.0" d="m313.5766 17.244022c0 4.3756065 -3.565796 8.016275 -7.9414062 8.016275c-4.45047 0 -8.016296 -3.6406689 -8.016296 -8.016275c0 -4.457266 3.5658264 -8.023079 8.016296 -8.023079c4.3756104 0 7.9414062 3.565813 7.9414062 8.023079z" fill-rule="evenodd"/><path stroke="#b7e253" stroke-width="4.0" stroke-miterlimit="11.906" stroke-linecap="butt" d="m313.5766 17.244022c0 4.3756065 -3.565796 8.016275 -7.9414062 8.016275c-4.45047 0 -8.016296 -3.6406689 -8.016296 -8.016275c0 -4.457266 3.5658264 -8.023079 8.016296 -8.023079c4.3756104 0 7.9414062 3.565813 7.9414062 8.023079z" fill-rule="evenodd"/><path fill="#000000" fill-opacity="0.0" d="m353.60355 17.244022c0 4.3756065 -3.5658264 8.016275 -8.023102 8.016275c-4.457245 0 -8.023071 -3.6406689 -8.023071 -8.016275c0 -4.457266 3.5658264 -8.023079 8.023071 -8.023079c4.4572754 0 8.023102 3.565813 8.023102 8.023079z" fill-rule="evenodd"/><path stroke="#9feb6e" stroke-width="4.0" stroke-miterlimit="11.906" stroke-linecap="butt" d="m353.60355 17.244022c0 4.3756065 -3.5658264 8.016275 -8.023102 8.016275c-4.457245 0 -8.023071 -3.6406689 -8.023071 -8.016275c0 -4.457266 3.5658264 -8.023079 8.023071 -8.023079c4.4572754 0 8.023102 3.565813 8.023102 8.023079z" fill-rule="evenodd"/><path fill="#000000" fill-opacity="0.0" d="m393.5488 17.244022c0 4.3756065 -3.565796 8.016275 -8.023071 8.016275c-4.3756104 0 -8.023071 -3.6406689 -8.023071 -8.016275c0 -4.457266 3.565796 -8.023079 8.023071 -8.023079c4.4572754 0 8.023071 3.565813 8.023071 8.023079z" fill-rule="evenodd"/><path stroke="#87f589" stroke-width="4.0" stroke-miterlimit="11.906" stroke-linecap="butt" d="m393.5488 17.244022c0 4.3756065 -3.565796 8.016275 -8.023071 8.016275c-4.3756104 0 -8.023071 -3.6406689 -8.023071 -8.016275c0 -4.457266 3.565796 -8.023079 8.023071 -8.023079c4.4572754 0 8.023071 3.565813 8.023071 8.023079z" fill-rule="evenodd"/><path fill="#000000" fill-opacity="0.0" d="m433.48727 17.244022c0 -4.457266 -3.5589905 -8.023079 -8.016266 -8.023079c-4.3756104 0 -8.023071 3.565813 -8.023071 8.023079c0 4.3756065 3.647461 8.016275 8.023071 8.016275c4.4572754 -0.081661224 8.016266 -3.6406689 8.016266 -8.016275z" fill-rule="evenodd"/><path stroke="#6fffa5" stroke-width="4.0" stroke-miterlimit="11.906" stroke-linecap="butt" d="m433.48727 17.244022c0 -4.457266 -3.5589905 -8.023079 -8.016266 -8.023079c-4.3756104 0 -8.023071 3.565813 -8.023071 8.023079c0 4.3756065 3.647461 8.016275 8.023071 8.016275c4.4572754 -0.081661224 8.016266 -3.6406689 8.016266 -8.016275z" fill-rule="evenodd"/><path fill="#000000" fill-opacity="0.0" d="m193.74759 65.695526c0 4.368805 -3.6474762 7.934616 -8.023071 7.934616c-4.4572754 0 -8.023087 -3.5658112 -8.023087 -7.934616c0 -4.457264 3.5658112 -8.023075 8.023087 -8.023075c4.375595 0 8.023071 3.5658112 8.023071 8.023075z" fill-rule="evenodd"/><path stroke="#ffc400" stroke-width="4.0" stroke-miterlimit="11.906" stroke-linecap="butt" d="m193.74759 65.695526c0 4.368805 -3.6474762 7.934616 -8.023071 7.934616c-4.4572754 0 -8.023087 -3.5658112 -8.023087 -7.934616c0 -4.457264 3.5658112 -8.023075 8.023087 -8.023075c4.375595 0 8.023071 3.5658112 8.023071 8.023075z" fill-rule="evenodd"/><path fill="#000000" fill-opacity="0.0" d="m233.69286 65.695526c0 4.368805 -3.5658112 7.934616 -8.023071 7.934616c-4.3756104 0 -8.023087 -3.5658112 -8.023087 -7.934616c0 -4.457264 3.6474762 -8.023075 8.023087 -8.023075c4.45726 0 8.023071 3.5658112 8.023071 8.023075z" fill-rule="evenodd"/><path stroke="#e7ce1c" stroke-width="4.0" stroke-miterlimit="11.906" stroke-linecap="butt" d="m233.69286 65.695526c0 4.368805 -3.5658112 7.934616 -8.023071 7.934616c-4.3756104 0 -8.023087 -3.5658112 -8.023087 -7.934616c0 -4.457264 3.6474762 -8.023075 8.023087 -8.023075c4.45726 0 8.023071 3.5658112 8.023071 8.023075z" fill-rule="evenodd"/><path fill="#000000" fill-opacity="0.0" d="m273.63132 65.695526c0 4.368805 -3.5589905 7.934616 -8.016266 7.934616c-4.3756104 0 -8.023071 -3.5658112 -8.023071 -7.934616c0 -4.457264 3.647461 -8.023075 8.023071 -8.023075c4.4572754 0 8.016266 3.5658112 8.016266 8.023075z" fill-rule="evenodd"/><path stroke="#cfd837" stroke-width="4.0" stroke-miterlimit="11.906" stroke-linecap="butt" d="m273.63132 65.695526c0 4.368805 -3.5589905 7.934616 -8.016266 7.934616c-4.3756104 0 -8.023071 -3.5658112 -8.023071 -7.934616c0 -4.457264 3.647461 -8.023075 8.023071 -8.023075c4.4572754 0 8.016266 3.5658112 8.016266 8.023075z" fill-rule="evenodd"/><path fill="#000000" fill-opacity="0.0" d="m313.5766 65.695526c0 4.368805 -3.565796 7.934616 -7.9414062 7.934616c-4.45047 0 -8.016296 -3.5658112 -8.016296 -7.934616c0 -4.457264 3.5658264 -8.023075 8.016296 -8.023075c4.3756104 0 7.9414062 3.5658112 7.9414062 8.023075z" fill-rule="evenodd"/><path stroke="#b7e253" stroke-width="4.0" stroke-miterlimit="11.906" stroke-linecap="butt" d="m313.5766 65.695526c0 4.368805 -3.565796 7.934616 -7.9414062 7.934616c-4.45047 0 -8.016296 -3.5658112 -8.016296 -7.934616c0 -4.457264 3.5658264 -8.023075 8.016296 -8.023075c4.3756104 0 7.9414062 3.5658112 7.9414062 8.023075z" fill-rule="evenodd"/><path fill="#000000" fill-opacity="0.0" d="m353.60355 65.695526c0 4.368805 -3.5658264 7.934616 -8.023102 7.934616c-4.457245 0 -8.023071 -3.5658112 -8.023071 -7.934616c0 -4.457264 3.5658264 -8.023075 8.023071 -8.023075c4.4572754 0 8.023102 3.5658112 8.023102 8.023075z" fill-rule="evenodd"/><path stroke="#9feb6e" stroke-width="4.0" stroke-miterlimit="11.906" stroke-linecap="butt" d="m353.60355 65.695526c0 4.368805 -3.5658264 7.934616 -8.023102 7.934616c-4.457245 0 -8.023071 -3.5658112 -8.023071 -7.934616c0 -4.457264 3.5658264 -8.023075 8.023071 -8.023075c4.4572754 0 8.023102 3.5658112 8.023102 8.023075z" fill-rule="evenodd"/><path fill="#000000" fill-opacity="0.0" d="m393.5488 65.695526c0 4.368805 -3.565796 7.934616 -8.023071 7.934616c-4.3756104 0 -8.023071 -3.5658112 -8.023071 -7.934616c0 -4.457264 3.565796 -8.023075 8.023071 -8.023075c4.4572754 0 8.023071 3.5658112 8.023071 8.023075z" fill-rule="evenodd"/><path stroke="#87f589" stroke-width="4.0" stroke-miterlimit="11.906" stroke-linecap="butt" d="m393.5488 65.695526c0 4.368805 -3.565796 7.934616 -8.023071 7.934616c-4.3756104 0 -8.023071 -3.5658112 -8.023071 -7.934616c0 -4.457264 3.565796 -8.023075 8.023071 -8.023075c4.4572754 0 8.023071 3.5658112 8.023071 8.023075z" fill-rule="evenodd"/><path fill="#000000" fill-opacity="0.0" d="m433.48727 65.695526c0 -4.457264 -3.5589905 -8.023075 -8.016266 -8.023075c-4.3756104 0 -8.023071 3.5658112 -8.023071 8.023075c0 4.368805 3.647461 7.934616 8.023071 7.934616c4.4572754 0 8.016266 -3.5658112 8.016266 -7.934616z" fill-rule="evenodd"/><path stroke="#6fffa5" stroke-width="4.0" stroke-miterlimit="11.906" stroke-linecap="butt" d="m433.48727 65.695526c0 -4.457264 -3.5589905 -8.023075 -8.016266 -8.023075c-4.3756104 0 -8.023071 3.5658112 -8.023071 8.023075c0 4.368805 3.647461 7.934616 8.023071 7.934616c4.4572754 0 8.016266 -3.5658112 8.016266 -7.934616z" fill-rule="evenodd"/><path fill="#000000" fill-opacity="0.0" d="m193.74759 114.06538c0 4.4504623 -3.6474762 8.0162735 -8.023071 8.0162735c-4.4572754 0 -8.023087 -3.5658112 -8.023087 -8.0162735c0 -4.3756104 3.5658112 -8.023079 8.023087 -8.023079c4.375595 0.08165741 8.023071 3.6474686 8.023071 8.023079z" fill-rule="evenodd"/><path stroke="#ffc400" stroke-width="4.0" stroke-miterlimit="11.906" stroke-linecap="butt" d="m193.74759 114.06538c0 4.4504623 -3.6474762 8.0162735 -8.023071 8.0162735c-4.4572754 0 -8.023087 -3.5658112 -8.023087 -8.0162735c0 -4.3756104 3.5658112 -8.023079 8.023087 -8.023079c4.375595 0.08165741 8.023071 3.6474686 8.023071 8.023079z" fill-rule="evenodd"/><path fill="#000000" fill-opacity="0.0" d="m233.69286 114.06538c0 4.4504623 -3.5658112 8.0162735 -8.023071 8.0162735c-4.3756104 0 -8.023087 -3.5658112 -8.023087 -8.0162735c0 -4.3756104 3.6474762 -8.023079 8.023087 -8.023079c4.45726 0.08165741 8.023071 3.6474686 8.023071 8.023079z" fill-rule="evenodd"/><path stroke="#e7ce1c" stroke-width="4.0" stroke-miterlimit="11.906" stroke-linecap="butt" d="m233.69286 114.06538c0 4.4504623 -3.5658112 8.0162735 -8.023071 8.0162735c-4.3756104 0 -8.023087 -3.5658112 -8.023087 -8.0162735c0 -4.3756104 3.6474762 -8.023079 8.023087 -8.023079c4.45726 0.08165741 8.023071 3.6474686 8.023071 8.023079z" fill-rule="evenodd"/><path fill="#000000" fill-opacity="0.0" d="m273.63132 114.06538c0 4.4504623 -3.5589905 8.0162735 -8.016266 8.0162735c-4.3756104 0 -8.023071 -3.5658112 -8.023071 -8.0162735c0 -4.3756104 3.647461 -8.023079 8.023071 -8.023079c4.4572754 0.08165741 8.016266 3.6474686 8.016266 8.023079z" fill-rule="evenodd"/><path stroke="#cfd837" stroke-width="4.0" stroke-miterlimit="11.906" stroke-linecap="butt" d="m273.63132 114.06538c0 4.4504623 -3.5589905 8.0162735 -8.016266 8.0162735c-4.3756104 0 -8.023071 -3.5658112 -8.023071 -8.0162735c0 -4.3756104 3.647461 -8.023079 8.023071 -8.023079c4.4572754 0.08165741 8.016266 3.6474686 8.016266 8.023079z" fill-rule="evenodd"/><path fill="#000000" fill-opacity="0.0" d="m313.5766 114.06538c0 4.4504623 -3.565796 8.0162735 -7.9414062 8.0162735c-4.45047 0 -8.016296 -3.5658112 -8.016296 -8.0162735c0 -4.3756104 3.5658264 -8.023079 8.016296 -8.023079c4.3756104 0.08165741 7.9414062 3.6474686 7.9414062 8.023079z" fill-rule="evenodd"/><path stroke="#b7e253" stroke-width="4.0" stroke-miterlimit="11.906" stroke-linecap="butt" d="m313.5766 114.06538c0 4.4504623 -3.565796 8.0162735 -7.9414062 8.0162735c-4.45047 0 -8.016296 -3.5658112 -8.016296 -8.0162735c0 -4.3756104 3.5658264 -8.023079 8.016296 -8.023079c4.3756104 0.08165741 7.9414062 3.6474686 7.9414062 8.023079z" fill-rule="evenodd"/><path fill="#000000" fill-opacity="0.0" d="m353.60355 114.06538c0 4.4504623 -3.5658264 8.0162735 -8.023102 8.0162735c-4.457245 0 -8.023071 -3.5658112 -8.023071 -8.0162735c0 -4.3756104 3.5658264 -8.023079 8.023071 -8.023079c4.4572754 0.08165741 8.023102 3.6474686 8.023102 8.023079z" fill-rule="evenodd"/><path stroke="#9feb6e" stroke-width="4.0" stroke-miterlimit="11.906" stroke-linecap="butt" d="m353.60355 114.06538c0 4.4504623 -3.5658264 8.0162735 -8.023102 8.0162735c-4.457245 0 -8.023071 -3.5658112 -8.023071 -8.0162735c0 -4.3756104 3.5658264 -8.023079 8.023071 -8.023079c4.4572754 0.08165741 8.023102 3.6474686 8.023102 8.023079z" fill-rule="evenodd"/><path fill="#000000" fill-opacity="0.0" d="m393.5488 114.06538c0 4.4504623 -3.565796 8.0162735 -8.023071 8.0162735c-4.3756104 0 -8.023071 -3.5658112 -8.023071 -8.0162735c0 -4.3756104 3.565796 -8.023079 8.023071 -8.023079c4.4572754 0.08165741 8.023071 3.6474686 8.023071 8.023079z" fill-rule="evenodd"/><path stroke="#87f589" stroke-width="4.0" stroke-miterlimit="11.906" stroke-linecap="butt" d="m393.5488 114.06538c0 4.4504623 -3.565796 8.0162735 -8.023071 8.0162735c-4.3756104 0 -8.023071 -3.5658112 -8.023071 -8.0162735c0 -4.3756104 3.565796 -8.023079 8.023071 -8.023079c4.4572754 0.08165741 8.023071 3.6474686 8.023071 8.023079z" fill-rule="evenodd"/><path fill="#000000" fill-opacity="0.0" d="m433.48727 114.06538c0 -4.3756104 -3.5589905 -8.023079 -8.016266 -8.023079c-4.3756104 0 -8.023071 3.6474686 -8.023071 8.023079c0 4.4504623 3.647461 8.0162735 8.023071 8.0162735c4.4572754 0 8.016266 -3.5658112 8.016266 -8.0162735z" fill-rule="evenodd"/><path stroke="#6fffa5" stroke-width="4.0" stroke-miterlimit="11.906" stroke-linecap="butt" d="m433.48727 114.06538c0 -4.3756104 -3.5589905 -8.023079 -8.016266 -8.023079c-4.3756104 0 -8.023071 3.6474686 -8.023071 8.023079c0 4.4504623 3.647461 8.0162735 8.023071 8.0162735c4.4572754 0 8.016266 -3.5658112 8.016266 -8.0162735z" fill-rule="evenodd"/><path fill="#000000" fill-opacity="0.0" d="m193.74759 162.51007c0 4.4572754 -3.6474762 8.023087 -8.023071 8.023087c-4.4572754 0 -8.023087 -3.5658112 -8.023087 -8.023087c0 -4.3687897 3.5658112 -8.016266 8.023087 -8.016266c4.375595 0 8.023071 3.6474762 8.023071 8.016266z" fill-rule="evenodd"/><path stroke="#ffc400" stroke-width="4.0" stroke-miterlimit="11.906" stroke-linecap="butt" d="m193.74759 162.51007c0 4.4572754 -3.6474762 8.023087 -8.023071 8.023087c-4.4572754 0 -8.023087 -3.5658112 -8.023087 -8.023087c0 -4.3687897 3.5658112 -8.016266 8.023087 -8.016266c4.375595 0 8.023071 3.6474762 8.023071 8.016266z" fill-rule="evenodd"/><path fill="#000000" fill-opacity="0.0" d="m233.69286 162.51007c0 4.4572754 -3.5658112 8.023087 -8.023071 8.023087c-4.3756104 0 -8.023087 -3.5658112 -8.023087 -8.023087c0 -4.3687897 3.6474762 -8.016266 8.023087 -8.016266c4.45726 0 8.023071 3.6474762 8.023071 8.016266z" fill-rule="evenodd"/><path stroke="#e7ce1c" stroke-width="4.0" stroke-miterlimit="11.906" stroke-linecap="butt" d="m233.69286 162.51007c0 4.4572754 -3.5658112 8.023087 -8.023071 8.023087c-4.3756104 0 -8.023087 -3.5658112 -8.023087 -8.023087c0 -4.3687897 3.6474762 -8.016266 8.023087 -8.016266c4.45726 0 8.023071 3.6474762 8.023071 8.016266z" fill-rule="evenodd"/><path fill="#000000" fill-opacity="0.0" d="m273.63132 162.51007c0 4.4572754 -3.5589905 8.023087 -8.016266 8.023087c-4.3756104 0 -8.023071 -3.5658112 -8.023071 -8.023087c0 -4.3687897 3.647461 -8.016266 8.023071 -8.016266c4.4572754 0 8.016266 3.6474762 8.016266 8.016266z" fill-rule="evenodd"/><path stroke="#cfd837" stroke-width="4.0" stroke-miterlimit="11.906" stroke-linecap="butt" d="m273.63132 162.51007c0 4.4572754 -3.5589905 8.023087 -8.016266 8.023087c-4.3756104 0 -8.023071 -3.5658112 -8.023071 -8.023087c0 -4.3687897 3.647461 -8.016266 8.023071 -8.016266c4.4572754 0 8.016266 3.6474762 8.016266 8.016266z" fill-rule="evenodd"/><path fill="#000000" fill-opacity="0.0" d="m313.5766 162.51007c0 4.4572754 -3.565796 8.023087 -7.9414062 8.023087c-4.45047 0 -8.016296 -3.5658112 -8.016296 -8.023087c0 -4.3687897 3.5658264 -8.016266 8.016296 -8.016266c4.3756104 0 7.9414062 3.6474762 7.9414062 8.016266z" fill-rule="evenodd"/><path stroke="#b7e253" stroke-width="4.0" stroke-miterlimit="11.906" stroke-linecap="butt" d="m313.5766 162.51007c0 4.4572754 -3.565796 8.023087 -7.9414062 8.023087c-4.45047 0 -8.016296 -3.5658112 -8.016296 -8.023087c0 -4.3687897 3.5658264 -8.016266 8.016296 -8.016266c4.3756104 0 7.9414062 3.6474762 7.9414062 8.016266z" fill-rule="evenodd"/><path fill="#000000" fill-opacity="0.0" d="m353.60355 162.51007c0 4.4572754 -3.5658264 8.023087 -8.023102 8.023087c-4.457245 0 -8.023071 -3.5658112 -8.023071 -8.023087c0 -4.3687897 3.5658264 -8.016266 8.023071 -8.016266c4.4572754 0 8.023102 3.6474762 8.023102 8.016266z" fill-rule="evenodd"/><path stroke="#9feb6e" stroke-width="4.0" stroke-miterlimit="11.906" stroke-linecap="butt" d="m353.60355 162.51007c0 4.4572754 -3.5658264 8.023087 -8.023102 8.023087c-4.457245 0 -8.023071 -3.5658112 -8.023071 -8.023087c0 -4.3687897 3.5658264 -8.016266 8.023071 -8.016266c4.4572754 0 8.023102 3.6474762 8.023102 8.016266z" fill-rule="evenodd"/><path fill="#000000" fill-opacity="0.0" d="m393.5488 162.51007c0 4.4572754 -3.565796 8.023087 -8.023071 8.023087c-4.3756104 0 -8.023071 -3.5658112 -8.023071 -8.023087c0 -4.3687897 3.565796 -8.016266 8.023071 -8.016266c4.4572754 0 8.023071 3.6474762 8.023071 8.016266z" fill-rule="evenodd"/><path stroke="#87f589" stroke-width="4.0" stroke-miterlimit="11.906" stroke-linecap="butt" d="m393.5488 162.51007c0 4.4572754 -3.565796 8.023087 -8.023071 8.023087c-4.3756104 0 -8.023071 -3.5658112 -8.023071 -8.023087c0 -4.3687897 3.565796 -8.016266 8.023071 -8.016266c4.4572754 0 8.023071 3.6474762 8.023071 8.016266z" fill-rule="evenodd"/><path fill="#000000" fill-opacity="0.0" d="m433.48727 162.51007c0 -4.3687897 -3.5589905 -8.016266 -8.016266 -8.016266c-4.3756104 0 -8.023071 3.6474762 -8.023071 8.016266c0 4.4572754 3.647461 8.023087 8.023071 8.023087c4.4572754 0 8.016266 -3.5658112 8.016266 -8.023087z" fill-rule="evenodd"/><path stroke="#6fffa5" stroke-width="4.0" stroke-miterlimit="11.906" stroke-linecap="butt" d="m433.48727 162.51007c0 -4.3687897 -3.5589905 -8.016266 -8.016266 -8.016266c-4.3756104 0 -8.023071 3.6474762 -8.023071 8.016266c0 4.4572754 3.647461 8.023087 8.023071 8.023087c4.4572754 0 8.016266 -3.5658112 8.016266 -8.023087z" fill-rule="evenodd"/><path fill="#000000" fill-opacity="0.0" d="m193.74759 210.96158c0 4.4572754 -3.6474762 8.023087 -8.023071 8.023087c-4.4572754 0 -8.023087 -3.5658112 -8.023087 -8.023087c0 -4.4504547 3.5658112 -8.016266 8.023087 -8.016266c4.375595 0 8.023071 3.5658112 8.023071 8.016266z" fill-rule="evenodd"/><path stroke="#ffc400" stroke-width="4.0" stroke-miterlimit="11.906" stroke-linecap="butt" d="m193.74759 210.96158c0 4.4572754 -3.6474762 8.023087 -8.023071 8.023087c-4.4572754 0 -8.023087 -3.5658112 -8.023087 -8.023087c0 -4.4504547 3.5658112 -8.016266 8.023087 -8.016266c4.375595 0 8.023071 3.5658112 8.023071 8.016266z" fill-rule="evenodd"/><path fill="#000000" fill-opacity="0.0" d="m233.69286 210.96158c0 4.4572754 -3.5658112 8.023087 -8.023071 8.023087c-4.3756104 0 -8.023087 -3.5658112 -8.023087 -8.023087c0 -4.4504547 3.6474762 -8.016266 8.023087 -8.016266c4.45726 0 8.023071 3.5658112 8.023071 8.016266z" fill-rule="evenodd"/><path stroke="#e7ce1c" stroke-width="4.0" stroke-miterlimit="11.906" stroke-linecap="butt" d="m233.69286 210.96158c0 4.4572754 -3.5658112 8.023087 -8.023071 8.023087c-4.3756104 0 -8.023087 -3.5658112 -8.023087 -8.023087c0 -4.4504547 3.6474762 -8.016266 8.023087 -8.016266c4.45726 0 8.023071 3.5658112 8.023071 8.016266z" fill-rule="evenodd"/><path fill="#000000" fill-opacity="0.0" d="m273.63132 210.96158c0 4.4572754 -3.5589905 8.023087 -8.016266 8.023087c-4.3756104 0 -8.023071 -3.5658112 -8.023071 -8.023087c0 -4.4504547 3.647461 -8.016266 8.023071 -8.016266c4.4572754 0 8.016266 3.5658112 8.016266 8.016266z" fill-rule="evenodd"/><path stroke="#cfd837" stroke-width="4.0" stroke-miterlimit="11.906" stroke-linecap="butt" d="m273.63132 210.96158c0 4.4572754 -3.5589905 8.023087 -8.016266 8.023087c-4.3756104 0 -8.023071 -3.5658112 -8.023071 -8.023087c0 -4.4504547 3.647461 -8.016266 8.023071 -8.016266c4.4572754 0 8.016266 3.5658112 8.016266 8.016266z" fill-rule="evenodd"/><path fill="#000000" fill-opacity="0.0" d="m313.5766 210.96158c0 4.4572754 -3.565796 8.023087 -7.9414062 8.023087c-4.45047 0 -8.016296 -3.5658112 -8.016296 -8.023087c0 -4.4504547 3.5658264 -8.016266 8.016296 -8.016266c4.3756104 0 7.9414062 3.5658112 7.9414062 8.016266z" fill-rule="evenodd"/><path stroke="#b7e253" stroke-width="4.0" stroke-miterlimit="11.906" stroke-linecap="butt" d="m313.5766 210.96158c0 4.4572754 -3.565796 8.023087 -7.9414062 8.023087c-4.45047 0 -8.016296 -3.5658112 -8.016296 -8.023087c0 -4.4504547 3.5658264 -8.016266 8.016296 -8.016266c4.3756104 0 7.9414062 3.5658112 7.9414062 8.016266z" fill-rule="evenodd"/><path fill="#000000" fill-opacity="0.0" d="m353.60355 210.96158c0 4.4572754 -3.5658264 8.023087 -8.023102 8.023087c-4.457245 0 -8.023071 -3.5658112 -8.023071 -8.023087c0 -4.4504547 3.5658264 -8.016266 8.023071 -8.016266c4.4572754 0 8.023102 3.5658112 8.023102 8.016266z" fill-rule="evenodd"/><path stroke="#9feb6e" stroke-width="4.0" stroke-miterlimit="11.906" stroke-linecap="butt" d="m353.60355 210.96158c0 4.4572754 -3.5658264 8.023087 -8.023102 8.023087c-4.457245 0 -8.023071 -3.5658112 -8.023071 -8.023087c0 -4.4504547 3.5658264 -8.016266 8.023071 -8.016266c4.4572754 0 8.023102 3.5658112 8.023102 8.016266z" fill-rule="evenodd"/><path fill="#000000" fill-opacity="0.0" d="m393.5488 210.96158c0 4.4572754 -3.565796 8.023087 -8.023071 8.023087c-4.3756104 0 -8.023071 -3.5658112 -8.023071 -8.023087c0 -4.4504547 3.565796 -8.016266 8.023071 -8.016266c4.4572754 0 8.023071 3.5658112 8.023071 8.016266z" fill-rule="evenodd"/><path stroke="#87f589" stroke-width="4.0" stroke-miterlimit="11.906" stroke-linecap="butt" d="m393.5488 210.96158c0 4.4572754 -3.565796 8.023087 -8.023071 8.023087c-4.3756104 0 -8.023071 -3.5658112 -8.023071 -8.023087c0 -4.4504547 3.565796 -8.016266 8.023071 -8.016266c4.4572754 0 8.023071 3.5658112 8.023071 8.016266z" fill-rule="evenodd"/><path fill="#000000" fill-opacity="0.0" d="m433.48727 210.96158c0 -4.4504547 -3.5589905 -8.016266 -8.016266 -8.016266c-4.3756104 0 -8.023071 3.5658112 -8.023071 8.016266c0 4.4572754 3.647461 8.023087 8.023071 8.023087c4.4572754 0 8.016266 -3.5658112 8.016266 -8.023087z" fill-rule="evenodd"/><path stroke="#6fffa5" stroke-width="4.0" stroke-miterlimit="11.906" stroke-linecap="butt" d="m433.48727 210.96158c0 -4.4504547 -3.5589905 -8.016266 -8.016266 -8.016266c-4.3756104 0 -8.023071 3.5658112 -8.023071 8.016266c0 4.4572754 3.647461 8.023087 8.023071 8.023087c4.4572754 0 8.016266 -3.5658112 8.016266 -8.023087z" fill-rule="evenodd"/><path fill="#000000" fill-opacity="0.0" d="m193.74759 259.4131c0 4.4572754 -3.6474762 8.023071 -8.023071 8.023071c-4.4572754 0 -8.023087 -3.565796 -8.023087 -8.023071c0 -4.45726 3.5658112 -8.016266 8.023087 -8.016266c4.375595 0 8.023071 3.5590057 8.023071 8.016266z" fill-rule="evenodd"/><path stroke="#ffc400" stroke-width="4.0" stroke-miterlimit="11.906" stroke-linecap="butt" d="m193.74759 259.4131c0 4.4572754 -3.6474762 8.023071 -8.023071 8.023071c-4.4572754 0 -8.023087 -3.565796 -8.023087 -8.023071c0 -4.45726 3.5658112 -8.016266 8.023087 -8.016266c4.375595 0 8.023071 3.5590057 8.023071 8.016266z" fill-rule="evenodd"/><path fill="#000000" fill-opacity="0.0" d="m233.69286 259.4131c0 4.4572754 -3.5658112 8.023071 -8.023071 8.023071c-4.3756104 0 -8.023087 -3.565796 -8.023087 -8.023071c0 -4.45726 3.6474762 -8.016266 8.023087 -8.016266c4.45726 0 8.023071 3.5590057 8.023071 8.016266z" fill-rule="evenodd"/><path stroke="#e7ce1c" stroke-width="4.0" stroke-miterlimit="11.906" stroke-linecap="butt" d="m233.69286 259.4131c0 4.4572754 -3.5658112 8.023071 -8.023071 8.023071c-4.3756104 0 -8.023087 -3.565796 -8.023087 -8.023071c0 -4.45726 3.6474762 -8.016266 8.023087 -8.016266c4.45726 0 8.023071 3.5590057 8.023071 8.016266z" fill-rule="evenodd"/><path fill="#000000" fill-opacity="0.0" d="m273.63132 259.4131c0 4.4572754 -3.5589905 8.023071 -8.016266 8.023071c-4.3756104 0 -8.023071 -3.565796 -8.023071 -8.023071c0 -4.45726 3.647461 -8.016266 8.023071 -8.016266c4.4572754 0 8.016266 3.5590057 8.016266 8.016266z" fill-rule="evenodd"/><path stroke="#cfd837" stroke-width="4.0" stroke-miterlimit="11.906" stroke-linecap="butt" d="m273.63132 259.4131c0 4.4572754 -3.5589905 8.023071 -8.016266 8.023071c-4.3756104 0 -8.023071 -3.565796 -8.023071 -8.023071c0 -4.45726 3.647461 -8.016266 8.023071 -8.016266c4.4572754 0 8.016266 3.5590057 8.016266 8.016266z" fill-rule="evenodd"/><path fill="#000000" fill-opacity="0.0" d="m313.5766 259.4131c0 4.4572754 -3.565796 8.023071 -7.9414062 8.023071c-4.45047 0 -8.016296 -3.565796 -8.016296 -8.023071c0 -4.45726 3.5658264 -8.016266 8.016296 -8.016266c4.3756104 0 7.9414062 3.5590057 7.9414062 8.016266z" fill-rule="evenodd"/><path stroke="#b7e253" stroke-width="4.0" stroke-miterlimit="11.906" stroke-linecap="butt" d="m313.5766 259.4131c0 4.4572754 -3.565796 8.023071 -7.9414062 8.023071c-4.45047 0 -8.016296 -3.565796 -8.016296 -8.023071c0 -4.45726 3.5658264 -8.016266 8.016296 -8.016266c4.3756104 0 7.9414062 3.5590057 7.9414062 8.016266z" fill-rule="evenodd"/><path fill="#000000" fill-opacity="0.0" d="m353.60355 259.4131c0 4.4572754 -3.5658264 8.023071 -8.023102 8.023071c-4.457245 0 -8.023071 -3.565796 -8.023071 -8.023071c0 -4.45726 3.5658264 -8.016266 8.023071 -8.016266c4.4572754 0 8.023102 3.5590057 8.023102 8.016266z" fill-rule="evenodd"/><path stroke="#9feb6e" stroke-width="4.0" stroke-miterlimit="11.906" stroke-linecap="butt" d="m353.60355 259.4131c0 4.4572754 -3.5658264 8.023071 -8.023102 8.023071c-4.457245 0 -8.023071 -3.565796 -8.023071 -8.023071c0 -4.45726 3.5658264 -8.016266 8.023071 -8.016266c4.4572754 0 8.023102 3.5590057 8.023102 8.016266z" fill-rule="evenodd"/><path fill="#000000" fill-opacity="0.0" d="m393.5488 259.4131c0 4.4572754 -3.565796 8.023071 -8.023071 8.023071c-4.3756104 0 -8.023071 -3.565796 -8.023071 -8.023071c0 -4.45726 3.565796 -8.016266 8.023071 -8.016266c4.4572754 0 8.023071 3.5590057 8.023071 8.016266z" fill-rule="evenodd"/><path stroke="#87f589" stroke-width="4.0" stroke-miterlimit="11.906" stroke-linecap="butt" d="m393.5488 259.4131c0 4.4572754 -3.565796 8.023071 -8.023071 8.023071c-4.3756104 0 -8.023071 -3.565796 -8.023071 -8.023071c0 -4.45726 3.565796 -8.016266 8.023071 -8.016266c4.4572754 0 8.023071 3.5590057 8.023071 8.016266z" fill-rule="evenodd"/><path fill="#000000" fill-opacity="0.0" d="m433.48727 259.4131c0 -4.45726 -3.5589905 -8.016266 -8.016266 -8.016266c-4.3756104 0 -8.023071 3.5590057 -8.023071 8.016266c0 4.4572754 3.647461 8.023071 8.023071 8.023071c4.4572754 0 8.016266 -3.565796 8.016266 -8.023071z" fill-rule="evenodd"/><path stroke="#6fffa5" stroke-width="4.0" stroke-miterlimit="11.906" stroke-linecap="butt" d="m433.48727 259.4131c0 -4.45726 -3.5589905 -8.016266 -8.016266 -8.016266c-4.3756104 0 -8.023071 3.5590057 -8.023071 8.016266c0 4.4572754 3.647461 8.023071 8.023071 8.023071c4.4572754 0 8.016266 -3.565796 8.016266 -8.023071z" fill-rule="evenodd"/><path fill="#000000" fill-opacity="0.0" d="m193.74759 307.8646c0 4.3756104 -3.6474762 8.023071 -8.023071 8.023071c-4.4572754 0 -8.023087 -3.647461 -8.023087 -8.023071c0 -4.4572754 3.5658112 -8.016266 8.023087 -8.016266c4.375595 0 8.023071 3.5589905 8.023071 8.016266z" fill-rule="evenodd"/><path stroke="#ffc400" stroke-width="4.0" stroke-miterlimit="11.906" stroke-linecap="butt" d="m193.74759 307.8646c0 4.3756104 -3.6474762 8.023071 -8.023071 8.023071c-4.4572754 0 -8.023087 -3.647461 -8.023087 -8.023071c0 -4.4572754 3.5658112 -8.016266 8.023087 -8.016266c4.375595 0 8.023071 3.5589905 8.023071 8.016266z" fill-rule="evenodd"/><path fill="#000000" fill-opacity="0.0" d="m233.69286 307.8646c0 4.3756104 -3.5658112 8.023071 -8.023071 8.023071c-4.3756104 0 -8.023087 -3.647461 -8.023087 -8.023071c0 -4.4572754 3.6474762 -8.016266 8.023087 -8.016266c4.45726 0 8.023071 3.5589905 8.023071 8.016266z" fill-rule="evenodd"/><path stroke="#e7ce1c" stroke-width="4.0" stroke-miterlimit="11.906" stroke-linecap="butt" d="m233.69286 307.8646c0 4.3756104 -3.5658112 8.023071 -8.023071 8.023071c-4.3756104 0 -8.023087 -3.647461 -8.023087 -8.023071c0 -4.4572754 3.6474762 -8.016266 8.023087 -8.016266c4.45726 0 8.023071 3.5589905 8.023071 8.016266z" fill-rule="evenodd"/><path fill="#000000" fill-opacity="0.0" d="m273.63132 307.8646c0 4.3756104 -3.5589905 8.023071 -8.016266 8.023071c-4.3756104 0 -8.023071 -3.647461 -8.023071 -8.023071c0 -4.4572754 3.647461 -8.016266 8.023071 -8.016266c4.4572754 0 8.016266 3.5589905 8.016266 8.016266z" fill-rule="evenodd"/><path stroke="#cfd837" stroke-width="4.0" stroke-miterlimit="11.906" stroke-linecap="butt" d="m273.63132 307.8646c0 4.3756104 -3.5589905 8.023071 -8.016266 8.023071c-4.3756104 0 -8.023071 -3.647461 -8.023071 -8.023071c0 -4.4572754 3.647461 -8.016266 8.023071 -8.016266c4.4572754 0 8.016266 3.5589905 8.016266 8.016266z" fill-rule="evenodd"/><path fill="#000000" fill-opacity="0.0" d="m313.5766 307.8646c0 4.3756104 -3.565796 8.023071 -7.9414062 8.023071c-4.45047 0 -8.016296 -3.647461 -8.016296 -8.023071c0 -4.4572754 3.5658264 -8.016266 8.016296 -8.016266c4.3756104 0 7.9414062 3.5589905 7.9414062 8.016266z" fill-rule="evenodd"/><path stroke="#b7e253" stroke-width="4.0" stroke-miterlimit="11.906" stroke-linecap="butt" d="m313.5766 307.8646c0 4.3756104 -3.565796 8.023071 -7.9414062 8.023071c-4.45047 0 -8.016296 -3.647461 -8.016296 -8.023071c0 -4.4572754 3.5658264 -8.016266 8.016296 -8.016266c4.3756104 0 7.9414062 3.5589905 7.9414062 8.016266z" fill-rule="evenodd"/><path fill="#000000" fill-opacity="0.0" d="m353.60355 307.8646c0 4.3756104 -3.5658264 8.023071 -8.023102 8.023071c-4.457245 0 -8.023071 -3.647461 -8.023071 -8.023071c0 -4.4572754 3.5658264 -8.016266 8.023071 -8.016266c4.4572754 0 8.023102 3.5589905 8.023102 8.016266z" fill-rule="evenodd"/><path stroke="#9feb6e" stroke-width="4.0" stroke-miterlimit="11.906" stroke-linecap="butt" d="m353.60355 307.8646c0 4.3756104 -3.5658264 8.023071 -8.023102 8.023071c-4.457245 0 -8.023071 -3.647461 -8.023071 -8.023071c0 -4.4572754 3.5658264 -8.016266 8.023071 -8.016266c4.4572754 0 8.023102 3.5589905 8.023102 8.016266z" fill-rule="evenodd"/><path fill="#000000" fill-opacity="0.0" d="m393.5488 307.8646c0 4.3756104 -3.565796 8.023071 -8.023071 8.023071c-4.3756104 0 -8.023071 -3.647461 -8.023071 -8.023071c0 -4.4572754 3.565796 -8.016266 8.023071 -8.016266c4.4572754 0 8.023071 3.5589905 8.023071 8.016266z" fill-rule="evenodd"/><path stroke="#87f589" stroke-width="4.0" stroke-miterlimit="11.906" stroke-linecap="butt" d="m393.5488 307.8646c0 4.3756104 -3.565796 8.023071 -8.023071 8.023071c-4.3756104 0 -8.023071 -3.647461 -8.023071 -8.023071c0 -4.4572754 3.565796 -8.016266 8.023071 -8.016266c4.4572754 0 8.023071 3.5589905 8.023071 8.016266z" fill-rule="evenodd"/><path fill="#000000" fill-opacity="0.0" d="m433.48727 307.8646c0 -4.4572754 -3.5589905 -8.016266 -8.016266 -8.016266c-4.3756104 0 -8.023071 3.5589905 -8.023071 8.016266c0 4.3756104 3.647461 8.023071 8.023071 8.023071c4.4572754 0 8.016266 -3.647461 8.016266 -8.023071z" fill-rule="evenodd"/><path stroke="#6fffa5" stroke-width="4.0" stroke-miterlimit="11.906" stroke-linecap="butt" d="m433.48727 307.8646c0 -4.4572754 -3.5589905 -8.016266 -8.016266 -8.016266c-4.3756104 0 -8.023071 3.5589905 -8.023071 8.016266c0 4.3756104 3.647461 8.023071 8.023071 8.023071c4.4572754 0 8.016266 -3.647461 8.016266 -8.023071z" fill-rule="evenodd"/><path fill="#000000" fill-opacity="0.0" d="m193.74759 356.3161c0 4.3756104 -3.6474762 7.941437 -8.023071 7.941437c-4.4572754 0 -8.023087 -3.5658264 -8.023087 -7.941437c0 -4.4572754 3.5658112 -8.023071 8.023087 -8.023071c4.375595 0 8.023071 3.565796 8.023071 8.023071z" fill-rule="evenodd"/><path stroke="#ffc400" stroke-width="4.0" stroke-miterlimit="11.906" stroke-linecap="butt" d="m193.74759 356.3161c0 4.3756104 -3.6474762 7.941437 -8.023071 7.941437c-4.4572754 0 -8.023087 -3.5658264 -8.023087 -7.941437c0 -4.4572754 3.5658112 -8.023071 8.023087 -8.023071c4.375595 0 8.023071 3.565796 8.023071 8.023071z" fill-rule="evenodd"/><path fill="#000000" fill-opacity="0.0" d="m233.69286 356.3161c0 4.3756104 -3.5658112 7.941437 -8.023071 7.941437c-4.3756104 0 -8.023087 -3.5658264 -8.023087 -7.941437c0 -4.4572754 3.6474762 -8.023071 8.023087 -8.023071c4.45726 0 8.023071 3.565796 8.023071 8.023071z" fill-rule="evenodd"/><path stroke="#e7ce1c" stroke-width="4.0" stroke-miterlimit="11.906" stroke-linecap="butt" d="m233.69286 356.3161c0 4.3756104 -3.5658112 7.941437 -8.023071 7.941437c-4.3756104 0 -8.023087 -3.5658264 -8.023087 -7.941437c0 -4.4572754 3.6474762 -8.023071 8.023087 -8.023071c4.45726 0 8.023071 3.565796 8.023071 8.023071z" fill-rule="evenodd"/><path fill="#000000" fill-opacity="0.0" d="m273.63132 356.3161c0 4.3756104 -3.5589905 7.941437 -8.016266 7.941437c-4.3756104 0 -8.023071 -3.5658264 -8.023071 -7.941437c0 -4.4572754 3.647461 -8.023071 8.023071 -8.023071c4.4572754 0 8.016266 3.565796 8.016266 8.023071z" fill-rule="evenodd"/><path stroke="#cfd837" stroke-width="4.0" stroke-miterlimit="11.906" stroke-linecap="butt" d="m273.63132 356.3161c0 4.3756104 -3.5589905 7.941437 -8.016266 7.941437c-4.3756104 0 -8.023071 -3.5658264 -8.023071 -7.941437c0 -4.4572754 3.647461 -8.023071 8.023071 -8.023071c4.4572754 0 8.016266 3.565796 8.016266 8.023071z" fill-rule="evenodd"/><path fill="#000000" fill-opacity="0.0" d="m313.5766 356.3161c0 4.3756104 -3.565796 7.941437 -7.9414062 7.941437c-4.45047 0 -8.016296 -3.5658264 -8.016296 -7.941437c0 -4.4572754 3.5658264 -8.023071 8.016296 -8.023071c4.3756104 0 7.9414062 3.565796 7.9414062 8.023071z" fill-rule="evenodd"/><path stroke="#b7e253" stroke-width="4.0" stroke-miterlimit="11.906" stroke-linecap="butt" d="m313.5766 356.3161c0 4.3756104 -3.565796 7.941437 -7.9414062 7.941437c-4.45047 0 -8.016296 -3.5658264 -8.016296 -7.941437c0 -4.4572754 3.5658264 -8.023071 8.016296 -8.023071c4.3756104 0 7.9414062 3.565796 7.9414062 8.023071z" fill-rule="evenodd"/><path fill="#000000" fill-opacity="0.0" d="m353.60355 356.3161c0 4.3756104 -3.5658264 7.941437 -8.023102 7.941437c-4.457245 0 -8.023071 -3.5658264 -8.023071 -7.941437c0 -4.4572754 3.5658264 -8.023071 8.023071 -8.023071c4.4572754 0 8.023102 3.565796 8.023102 8.023071z" fill-rule="evenodd"/><path stroke="#9feb6e" stroke-width="4.0" stroke-miterlimit="11.906" stroke-linecap="butt" d="m353.60355 356.3161c0 4.3756104 -3.5658264 7.941437 -8.023102 7.941437c-4.457245 0 -8.023071 -3.5658264 -8.023071 -7.941437c0 -4.4572754 3.5658264 -8.023071 8.023071 -8.023071c4.4572754 0 8.023102 3.565796 8.023102 8.023071z" fill-rule="evenodd"/><path fill="#000000" fill-opacity="0.0" d="m393.5488 356.3161c0 4.3756104 -3.565796 7.941437 -8.023071 7.941437c-4.3756104 0 -8.023071 -3.5658264 -8.023071 -7.941437c0 -4.4572754 3.565796 -8.023071 8.023071 -8.023071c4.4572754 0 8.023071 3.565796 8.023071 8.023071z" fill-rule="evenodd"/><path stroke="#87f589" stroke-width="4.0" stroke-miterlimit="11.906" stroke-linecap="butt" d="m393.5488 356.3161c0 4.3756104 -3.565796 7.941437 -8.023071 7.941437c-4.3756104 0 -8.023071 -3.5658264 -8.023071 -7.941437c0 -4.4572754 3.565796 -8.023071 8.023071 -8.023071c4.4572754 0 8.023071 3.565796 8.023071 8.023071z" fill-rule="evenodd"/><path fill="#000000" fill-opacity="0.0" d="m433.48727 356.3161c0 -4.4572754 -3.5589905 -8.023071 -8.016266 -8.023071c-4.3756104 0 -8.023071 3.565796 -8.023071 8.023071c0 4.3756104 3.647461 7.941437 8.023071 7.941437c4.4572754 0 8.016266 -3.5658264 8.016266 -7.941437z" fill-rule="evenodd"/><path stroke="#6fffa5" stroke-width="4.0" stroke-miterlimit="11.906" stroke-linecap="butt" d="m433.48727 356.3161c0 -4.4572754 -3.5589905 -8.023071 -8.016266 -8.023071c-4.3756104 0 -8.023071 3.565796 -8.023071 8.023071c0 4.3756104 3.647461 7.941437 8.023071 7.941437c4.4572754 0 8.016266 -3.5658264 8.016266 -7.941437z" fill-rule="evenodd"/><path fill="#000000" fill-opacity="0.0" d="m193.82925 404.68594c0 4.4572754 -3.5658112 8.023071 -8.023087 8.023071c-4.3756104 0 -7.9414215 -3.565796 -7.9414215 -8.023071c0 -4.3756104 3.5658112 -7.9414062 7.9414215 -7.9414062c4.4572754 0 8.023087 3.565796 8.023087 7.9414062z" fill-rule="evenodd"/><path stroke="#ffc400" stroke-width="4.0" stroke-miterlimit="11.906" stroke-linecap="butt" d="m193.82925 404.68594c0 4.4572754 -3.5658112 8.023071 -8.023087 8.023071c-4.3756104 0 -7.9414215 -3.565796 -7.9414215 -8.023071c0 -4.3756104 3.5658112 -7.9414062 7.9414215 -7.9414062c4.4572754 0 8.023087 3.565796 8.023087 7.9414062z" fill-rule="evenodd"/><path fill="#000000" fill-opacity="0.0" d="m233.77452 404.68594c0 4.4572754 -3.5658112 8.023071 -8.023071 8.023071c-4.3756104 0 -7.9414215 -3.565796 -7.9414215 -8.023071c0 -4.3756104 3.5658112 -7.9414062 7.9414215 -7.9414062c4.45726 0 8.023071 3.565796 8.023071 7.9414062z" fill-rule="evenodd"/><path stroke="#e7ce1c" stroke-width="4.0" stroke-miterlimit="11.906" stroke-linecap="butt" d="m233.77452 404.68594c0 4.4572754 -3.5658112 8.023071 -8.023071 8.023071c-4.3756104 0 -7.9414215 -3.565796 -7.9414215 -8.023071c0 -4.3756104 3.5658112 -7.9414062 7.9414215 -7.9414062c4.45726 0 8.023071 3.565796 8.023071 7.9414062z" fill-rule="evenodd"/><path fill="#000000" fill-opacity="0.0" d="m273.71298 404.68594c0 4.4572754 -3.565796 8.023071 -8.016266 8.023071c-4.3756104 0 -8.023071 -3.565796 -8.023071 -8.023071c0 -4.3756104 3.647461 -7.9414062 8.023071 -7.9414062c4.45047 0 8.016266 3.565796 8.016266 7.9414062z" fill-rule="evenodd"/><path stroke="#cfd837" stroke-width="4.0" stroke-miterlimit="11.906" stroke-linecap="butt" d="m273.71298 404.68594c0 4.4572754 -3.565796 8.023071 -8.016266 8.023071c-4.3756104 0 -8.023071 -3.565796 -8.023071 -8.023071c0 -4.3756104 3.647461 -7.9414062 8.023071 -7.9414062c4.45047 0 8.016266 3.565796 8.016266 7.9414062z" fill-rule="evenodd"/><path fill="#000000" fill-opacity="0.0" d="m313.65826 404.68594c0 4.4572754 -3.5658264 8.023071 -8.023071 8.023071c-4.3756104 0 -8.016296 -3.565796 -8.016296 -8.023071c0 -4.3756104 3.640686 -7.9414062 8.016296 -7.9414062c4.457245 0 8.023071 3.565796 8.023071 7.9414062z" fill-rule="evenodd"/><path stroke="#b7e253" stroke-width="4.0" stroke-miterlimit="11.906" stroke-linecap="butt" d="m313.65826 404.68594c0 4.4572754 -3.5658264 8.023071 -8.023071 8.023071c-4.3756104 0 -8.016296 -3.565796 -8.016296 -8.023071c0 -4.3756104 3.640686 -7.9414062 8.016296 -7.9414062c4.457245 0 8.023071 3.565796 8.023071 7.9414062z" fill-rule="evenodd"/><path fill="#000000" fill-opacity="0.0" d="m353.60355 404.68594c0 4.4572754 -3.5658264 8.023071 -8.023102 8.023071c-4.37558 0 -8.023071 -3.565796 -8.023071 -8.023071c0 -4.3756104 3.6474915 -7.9414062 8.023071 -7.9414062c4.4572754 0 8.023102 3.565796 8.023102 7.9414062z" fill-rule="evenodd"/><path stroke="#9feb6e" stroke-width="4.0" stroke-miterlimit="11.906" stroke-linecap="butt" d="m353.60355 404.68594c0 4.4572754 -3.5658264 8.023071 -8.023102 8.023071c-4.37558 0 -8.023071 -3.565796 -8.023071 -8.023071c0 -4.3756104 3.6474915 -7.9414062 8.023071 -7.9414062c4.4572754 0 8.023102 3.565796 8.023102 7.9414062z" fill-rule="evenodd"/><path fill="#000000" fill-opacity="0.0" d="m393.5488 404.68594c0 4.4572754 -3.565796 8.023071 -8.023071 8.023071c-4.3756104 0 -8.023071 -3.565796 -8.023071 -8.023071c0 -4.3756104 3.647461 -7.9414062 8.023071 -7.9414062c4.4572754 0 8.023071 3.565796 8.023071 7.9414062z" fill-rule="evenodd"/><path stroke="#87f589" stroke-width="4.0" stroke-miterlimit="11.906" stroke-linecap="butt" d="m393.5488 404.68594c0 4.4572754 -3.565796 8.023071 -8.023071 8.023071c-4.3756104 0 -8.023071 -3.565796 -8.023071 -8.023071c0 -4.3756104 3.647461 -7.9414062 8.023071 -7.9414062c4.4572754 0 8.023071 3.565796 8.023071 7.9414062z" fill-rule="evenodd"/><path fill="#000000" fill-opacity="0.0" d="m433.48727 404.68594c0 -4.3756104 -3.5589905 -7.9414062 -8.016266 -7.9414062c-4.3756104 0 -8.023071 3.565796 -8.023071 7.9414062c0 4.4572754 3.647461 8.023071 8.023071 8.023071c4.4572754 0 8.016266 -3.565796 8.016266 -8.023071z" fill-rule="evenodd"/><path stroke="#6fffa5" stroke-width="4.0" stroke-miterlimit="11.906" stroke-linecap="butt" d="m433.48727 404.68594c0 -4.3756104 -3.5589905 -7.9414062 -8.016266 -7.9414062c-4.3756104 0 -8.023071 3.565796 -8.023071 7.9414062c0 4.4572754 3.647461 8.023071 8.023071 8.023071c4.4572754 0 8.016266 -3.565796 8.016266 -8.023071z" fill-rule="evenodd"/><path fill="#000000" fill-opacity="0.0" d="m193.74759 453.13745c0 4.4572754 -3.6474762 8.023071 -8.023071 8.023071c-4.4572754 0 -8.023087 -3.565796 -8.023087 -8.023071c0 -4.3756104 3.5658112 -8.023071 8.023087 -8.023071c4.375595 0 8.023071 3.647461 8.023071 8.023071z" fill-rule="evenodd"/><path stroke="#ffc400" stroke-width="4.0" stroke-miterlimit="11.906" stroke-linecap="butt" d="m193.74759 453.13745c0 4.4572754 -3.6474762 8.023071 -8.023071 8.023071c-4.4572754 0 -8.023087 -3.565796 -8.023087 -8.023071c0 -4.3756104 3.5658112 -8.023071 8.023087 -8.023071c4.375595 0 8.023071 3.647461 8.023071 8.023071z" fill-rule="evenodd"/><path fill="#000000" fill-opacity="0.0" d="m233.69286 453.13745c0 4.4572754 -3.5658112 8.023071 -8.023071 8.023071c-4.3756104 0 -8.023087 -3.565796 -8.023087 -8.023071c0 -4.3756104 3.6474762 -8.023071 8.023087 -8.023071c4.45726 0 8.023071 3.647461 8.023071 8.023071z" fill-rule="evenodd"/><path stroke="#e7ce1c" stroke-width="4.0" stroke-miterlimit="11.906" stroke-linecap="butt" d="m233.69286 453.13745c0 4.4572754 -3.5658112 8.023071 -8.023071 8.023071c-4.3756104 0 -8.023087 -3.565796 -8.023087 -8.023071c0 -4.3756104 3.6474762 -8.023071 8.023087 -8.023071c4.45726 0 8.023071 3.647461 8.023071 8.023071z" fill-rule="evenodd"/><path fill="#000000" fill-opacity="0.0" d="m273.63132 453.13745c0 4.4572754 -3.5589905 8.023071 -8.016266 8.023071c-4.3756104 0 -8.023071 -3.565796 -8.023071 -8.023071c0 -4.3756104 3.647461 -8.023071 8.023071 -8.023071c4.4572754 0 8.016266 3.647461 8.016266 8.023071z" fill-rule="evenodd"/><path stroke="#cfd837" stroke-width="4.0" stroke-miterlimit="11.906" stroke-linecap="butt" d="m273.63132 453.13745c0 4.4572754 -3.5589905 8.023071 -8.016266 8.023071c-4.3756104 0 -8.023071 -3.565796 -8.023071 -8.023071c0 -4.3756104 3.647461 -8.023071 8.023071 -8.023071c4.4572754 0 8.016266 3.647461 8.016266 8.023071z" fill-rule="evenodd"/><path fill="#000000" fill-opacity="0.0" d="m313.5766 453.13745c0 4.4572754 -3.565796 8.023071 -7.9414062 8.023071c-4.45047 0 -8.016296 -3.565796 -8.016296 -8.023071c0 -4.3756104 3.5658264 -8.023071 8.016296 -8.023071c4.3756104 0 7.9414062 3.647461 7.9414062 8.023071z" fill-rule="evenodd"/><path stroke="#b7e253" stroke-width="4.0" stroke-miterlimit="11.906" stroke-linecap="butt" d="m313.5766 453.13745c0 4.4572754 -3.565796 8.023071 -7.9414062 8.023071c-4.45047 0 -8.016296 -3.565796 -8.016296 -8.023071c0 -4.3756104 3.5658264 -8.023071 8.016296 -8.023071c4.3756104 0 7.9414062 3.647461 7.9414062 8.023071z" fill-rule="evenodd"/><path fill="#000000" fill-opacity="0.0" d="m353.60355 453.13745c0 4.4572754 -3.5658264 8.023071 -8.023102 8.023071c-4.457245 0 -8.023071 -3.565796 -8.023071 -8.023071c0 -4.3756104 3.5658264 -8.023071 8.023071 -8.023071c4.4572754 0 8.023102 3.647461 8.023102 8.023071z" fill-rule="evenodd"/><path stroke="#9feb6e" stroke-width="4.0" stroke-miterlimit="11.906" stroke-linecap="butt" d="m353.60355 453.13745c0 4.4572754 -3.5658264 8.023071 -8.023102 8.023071c-4.457245 0 -8.023071 -3.565796 -8.023071 -8.023071c0 -4.3756104 3.5658264 -8.023071 8.023071 -8.023071c4.4572754 0 8.023102 3.647461 8.023102 8.023071z" fill-rule="evenodd"/><path fill="#000000" fill-opacity="0.0" d="m393.5488 453.13745c0 4.4572754 -3.565796 8.023071 -8.023071 8.023071c-4.3756104 0 -8.023071 -3.565796 -8.023071 -8.023071c0 -4.3756104 3.565796 -8.023071 8.023071 -8.023071c4.4572754 0 8.023071 3.647461 8.023071 8.023071z" fill-rule="evenodd"/><path stroke="#87f589" stroke-width="4.0" stroke-miterlimit="11.906" stroke-linecap="butt" d="m393.5488 453.13745c0 4.4572754 -3.565796 8.023071 -8.023071 8.023071c-4.3756104 0 -8.023071 -3.565796 -8.023071 -8.023071c0 -4.3756104 3.565796 -8.023071 8.023071 -8.023071c4.4572754 0 8.023071 3.647461 8.023071 8.023071z" fill-rule="evenodd"/><path fill="#000000" fill-opacity="0.0" d="m433.48727 453.13745c0 -4.3756104 -3.5589905 -8.023071 -8.016266 -8.023071c-4.3756104 0 -8.023071 3.647461 -8.023071 8.023071c0 4.4572754 3.647461 8.023071 8.023071 8.023071c4.4572754 0 8.016266 -3.565796 8.016266 -8.023071z" fill-rule="evenodd"/><path stroke="#6fffa5" stroke-width="4.0" stroke-miterlimit="11.906" stroke-linecap="butt" d="m433.48727 453.13745c0 -4.3756104 -3.5589905 -8.023071 -8.016266 -8.023071c-4.3756104 0 -8.023071 3.647461 -8.023071 8.023071c0 4.4572754 3.647461 8.023071 8.023071 8.023071c4.4572754 0 8.016266 -3.565796 8.016266 -8.023071z" fill-rule="evenodd"/><path fill="#000000" fill-opacity="0.0" d="m193.74759 501.58896c0 4.4572754 -3.6474762 8.023071 -8.023071 8.023071c-4.4572754 0 -8.023087 -3.565796 -8.023087 -8.023071c0 -4.4572754 3.5658112 -8.023071 8.023087 -8.023071c4.375595 0 8.023071 3.565796 8.023071 8.023071z" fill-rule="evenodd"/><path stroke="#ffc400" stroke-width="4.0" stroke-miterlimit="11.906" stroke-linecap="butt" d="m193.74759 501.58896c0 4.4572754 -3.6474762 8.023071 -8.023071 8.023071c-4.4572754 0 -8.023087 -3.565796 -8.023087 -8.023071c0 -4.4572754 3.5658112 -8.023071 8.023087 -8.023071c4.375595 0 8.023071 3.565796 8.023071 8.023071z" fill-rule="evenodd"/><path fill="#000000" fill-opacity="0.0" d="m233.69286 501.58896c0 4.4572754 -3.5658112 8.023071 -8.023071 8.023071c-4.3756104 0 -8.023087 -3.565796 -8.023087 -8.023071c0 -4.4572754 3.6474762 -8.023071 8.023087 -8.023071c4.45726 0 8.023071 3.565796 8.023071 8.023071z" fill-rule="evenodd"/><path stroke="#e7ce1c" stroke-width="4.0" stroke-miterlimit="11.906" stroke-linecap="butt" d="m233.69286 501.58896c0 4.4572754 -3.5658112 8.023071 -8.023071 8.023071c-4.3756104 0 -8.023087 -3.565796 -8.023087 -8.023071c0 -4.4572754 3.6474762 -8.023071 8.023087 -8.023071c4.45726 0 8.023071 3.565796 8.023071 8.023071z" fill-rule="evenodd"/><path fill="#000000" fill-opacity="0.0" d="m273.63132 501.58896c0 4.4572754 -3.5589905 8.023071 -8.016266 8.023071c-4.3756104 0 -8.023071 -3.565796 -8.023071 -8.023071c0 -4.4572754 3.647461 -8.023071 8.023071 -8.023071c4.4572754 0 8.016266 3.565796 8.016266 8.023071z" fill-rule="evenodd"/><path stroke="#cfd837" stroke-width="4.0" stroke-miterlimit="11.906" stroke-linecap="butt" d="m273.63132 501.58896c0 4.4572754 -3.5589905 8.023071 -8.016266 8.023071c-4.3756104 0 -8.023071 -3.565796 -8.023071 -8.023071c0 -4.4572754 3.647461 -8.023071 8.023071 -8.023071c4.4572754 0 8.016266 3.565796 8.016266 8.023071z" fill-rule="evenodd"/><path fill="#000000" fill-opacity="0.0" d="m313.5766 501.58896c0 4.4572754 -3.565796 8.023071 -7.9414062 8.023071c-4.45047 0 -8.016296 -3.565796 -8.016296 -8.023071c0 -4.4572754 3.5658264 -8.023071 8.016296 -8.023071c4.3756104 0 7.9414062 3.565796 7.9414062 8.023071z" fill-rule="evenodd"/><path stroke="#b7e253" stroke-width="4.0" stroke-miterlimit="11.906" stroke-linecap="butt" d="m313.5766 501.58896c0 4.4572754 -3.565796 8.023071 -7.9414062 8.023071c-4.45047 0 -8.016296 -3.565796 -8.016296 -8.023071c0 -4.4572754 3.5658264 -8.023071 8.016296 -8.023071c4.3756104 0 7.9414062 3.565796 7.9414062 8.023071z" fill-rule="evenodd"/><path fill="#000000" fill-opacity="0.0" d="m353.60355 501.58896c0 4.4572754 -3.5658264 8.023071 -8.023102 8.023071c-4.457245 0 -8.023071 -3.565796 -8.023071 -8.023071c0 -4.4572754 3.5658264 -8.023071 8.023071 -8.023071c4.4572754 0 8.023102 3.565796 8.023102 8.023071z" fill-rule="evenodd"/><path stroke="#9feb6e" stroke-width="4.0" stroke-miterlimit="11.906" stroke-linecap="butt" d="m353.60355 501.58896c0 4.4572754 -3.5658264 8.023071 -8.023102 8.023071c-4.457245 0 -8.023071 -3.565796 -8.023071 -8.023071c0 -4.4572754 3.5658264 -8.023071 8.023071 -8.023071c4.4572754 0 8.023102 3.565796 8.023102 8.023071z" fill-rule="evenodd"/><path fill="#000000" fill-opacity="0.0" d="m393.5488 501.58896c0 4.4572754 -3.565796 8.023071 -8.023071 8.023071c-4.3756104 0 -8.023071 -3.565796 -8.023071 -8.023071c0 -4.4572754 3.565796 -8.023071 8.023071 -8.023071c4.4572754 0 8.023071 3.565796 8.023071 8.023071z" fill-rule="evenodd"/><path stroke="#87f589" stroke-width="4.0" stroke-miterlimit="11.906" stroke-linecap="butt" d="m393.5488 501.58896c0 4.4572754 -3.565796 8.023071 -8.023071 8.023071c-4.3756104 0 -8.023071 -3.565796 -8.023071 -8.023071c0 -4.4572754 3.565796 -8.023071 8.023071 -8.023071c4.4572754 0 8.023071 3.565796 8.023071 8.023071z" fill-rule="evenodd"/><path fill="#000000" fill-opacity="0.0" d="m433.48727 501.58896c0 -4.4572754 -3.5589905 -8.023071 -8.016266 -8.023071c-4.3756104 0 -8.023071 3.565796 -8.023071 8.023071c0 4.4572754 3.647461 8.023071 8.023071 8.023071c4.4572754 0 8.016266 -3.565796 8.016266 -8.023071z" fill-rule="evenodd"/><path stroke="#6fffa5" stroke-width="4.0" stroke-miterlimit="11.906" stroke-linecap="butt" d="m433.48727 501.58896c0 -4.4572754 -3.5589905 -8.023071 -8.016266 -8.023071c-4.3756104 0 -8.023071 3.565796 -8.023071 8.023071c0 4.4572754 3.647461 8.023071 8.023071 8.023071c4.4572754 0 8.016266 -3.565796 8.016266 -8.023071z" fill-rule="evenodd"/><path fill="#000000" fill-opacity="0.0" d="m433.48727 17.244022c0 4.3756065 -3.5589905 8.016275 -8.016266 8.016275c-4.3756104 0 -8.023071 -3.6406689 -8.023071 -8.016275c0 -4.457266 3.647461 -8.023079 8.023071 -8.023079c4.4572754 0 8.016266 3.565813 8.016266 8.023079z" fill-rule="evenodd"/><path stroke="#6fffa5" stroke-width="4.0" stroke-miterlimit="11.906" stroke-linecap="butt" d="m433.48727 17.244022c0 4.3756065 -3.5589905 8.016275 -8.016266 8.016275c-4.3756104 0 -8.023071 -3.6406689 -8.023071 -8.016275c0 -4.457266 3.647461 -8.023079 8.023071 -8.023079c4.4572754 0 8.016266 3.565813 8.016266 8.023079z" fill-rule="evenodd"/><path fill="#000000" fill-opacity="0.0" d="m473.26923 17.244022c0 4.3756065 -3.5589905 8.016275 -8.016266 8.016275c-4.3756104 0 -8.023071 -3.6406689 -8.023071 -8.016275c0 -4.457266 3.647461 -8.023079 8.023071 -8.023079c4.4572754 0 8.016266 3.565813 8.016266 8.023079z" fill-rule="evenodd"/><path stroke="#5cde92" stroke-width="4.0" stroke-miterlimit="11.906" stroke-linecap="butt" d="m473.26923 17.244022c0 4.3756065 -3.5589905 8.016275 -8.016266 8.016275c-4.3756104 0 -8.023071 -3.6406689 -8.023071 -8.016275c0 -4.457266 3.647461 -8.023079 8.023071 -8.023079c4.4572754 0 8.016266 3.565813 8.016266 8.023079z" fill-rule="evenodd"/><path fill="#000000" fill-opacity="0.0" d="m513.0512 17.244022c0 4.3756065 -3.5658264 8.016275 -8.016296 8.016275c-4.3756104 0 -8.023071 -3.6406689 -8.023071 -8.016275c0 -4.457266 3.565796 -8.023079 8.023071 -8.023079c4.45047 0 8.016296 3.565813 8.016296 8.023079z" fill-rule="evenodd"/><path stroke="#4abd7f" stroke-width="4.0" stroke-miterlimit="11.906" stroke-linecap="butt" d="m513.0512 17.244022c0 4.3756065 -3.5658264 8.016275 -8.016296 8.016275c-4.3756104 0 -8.023071 -3.6406689 -8.023071 -8.016275c0 -4.457266 3.565796 -8.023079 8.023071 -8.023079c4.45047 0 8.016296 3.565813 8.016296 8.023079z" fill-rule="evenodd"/><path fill="#000000" fill-opacity="0.0" d="m552.8331 17.244022c0 4.3756065 -3.565796 8.016275 -8.016296 8.016275c-4.4572144 0 -8.023071 -3.6406689 -8.023071 -8.016275c0 -4.457266 3.565857 -8.023079 8.023071 -8.023079c4.4505005 0 8.016296 3.565813 8.016296 8.023079z" fill-rule="evenodd"/><path stroke="#389c6c" stroke-width="4.0" stroke-miterlimit="11.906" stroke-linecap="butt" d="m552.8331 17.244022c0 4.3756065 -3.565796 8.016275 -8.016296 8.016275c-4.4572144 0 -8.023071 -3.6406689 -8.023071 -8.016275c0 -4.457266 3.565857 -8.023079 8.023071 -8.023079c4.4505005 0 8.016296 3.565813 8.016296 8.023079z" fill-rule="evenodd"/><path fill="#000000" fill-opacity="0.0" d="m592.6151 17.244022c0 4.3756065 -3.565857 8.016275 -8.016296 8.016275c-4.4572754 0 -8.023071 -3.6406689 -8.023071 -8.016275c0 -4.457266 3.565796 -8.023079 8.023071 -8.023079c4.4504395 0 8.016296 3.565813 8.016296 8.023079z" fill-rule="evenodd"/><path stroke="#257a58" stroke-width="4.0" stroke-miterlimit="11.906" stroke-linecap="butt" d="m592.6151 17.244022c0 4.3756065 -3.565857 8.016275 -8.016296 8.016275c-4.4572754 0 -8.023071 -3.6406689 -8.023071 -8.016275c0 -4.457266 3.565796 -8.023079 8.023071 -8.023079c4.4504395 0 8.016296 3.565813 8.016296 8.023079z" fill-rule="evenodd"/><path fill="#000000" fill-opacity="0.0" d="m632.39703 17.244022c0 4.3756065 -3.647461 8.016275 -8.016235 8.016275c-4.4572754 0 -8.023132 -3.6406689 -8.023132 -8.016275c0 -4.457266 3.565857 -8.023079 8.023132 -8.023079c4.3687744 0 8.016235 3.565813 8.016235 8.023079z" fill-rule="evenodd"/><path stroke="#135945" stroke-width="4.0" stroke-miterlimit="11.906" stroke-linecap="butt" d="m632.39703 17.244022c0 4.3756065 -3.647461 8.016275 -8.016235 8.016275c-4.4572754 0 -8.023132 -3.6406689 -8.023132 -8.016275c0 -4.457266 3.565857 -8.023079 8.023132 -8.023079c4.3687744 0 8.016235 3.565813 8.016235 8.023079z" fill-rule="evenodd"/><path fill="#000000" fill-opacity="0.0" d="m672.179 17.244022c0 -4.457266 -3.647461 -8.023079 -8.016296 -8.023079c-4.4572754 0 -8.023071 3.565813 -8.023071 8.023079c0 4.3756065 3.565796 8.016275 8.023071 8.016275c4.3688354 -0.081661224 8.016296 -3.6406689 8.016296 -8.016275z" fill-rule="evenodd"/><path stroke="#003832" stroke-width="4.0" stroke-miterlimit="11.906" stroke-linecap="butt" d="m672.179 17.244022c0 -4.457266 -3.647461 -8.023079 -8.016296 -8.023079c-4.4572754 0 -8.023071 3.565813 -8.023071 8.023079c0 4.3756065 3.565796 8.016275 8.023071 8.016275c4.3688354 -0.081661224 8.016296 -3.6406689 8.016296 -8.016275z" fill-rule="evenodd"/><path fill="#000000" fill-opacity="0.0" d="m433.48727 65.695526c0 4.368805 -3.5589905 7.934616 -8.016266 7.934616c-4.3756104 0 -8.023071 -3.5658112 -8.023071 -7.934616c0 -4.457264 3.647461 -8.023075 8.023071 -8.023075c4.4572754 0 8.016266 3.5658112 8.016266 8.023075z" fill-rule="evenodd"/><path stroke="#6fffa5" stroke-width="4.0" stroke-miterlimit="11.906" stroke-linecap="butt" d="m433.48727 65.695526c0 4.368805 -3.5589905 7.934616 -8.016266 7.934616c-4.3756104 0 -8.023071 -3.5658112 -8.023071 -7.934616c0 -4.457264 3.647461 -8.023075 8.023071 -8.023075c4.4572754 0 8.016266 3.5658112 8.016266 8.023075z" fill-rule="evenodd"/><path fill="#000000" fill-opacity="0.0" d="m473.26923 65.695526c0 4.368805 -3.5589905 7.934616 -8.016266 7.934616c-4.3756104 0 -8.023071 -3.5658112 -8.023071 -7.934616c0 -4.457264 3.647461 -8.023075 8.023071 -8.023075c4.4572754 0 8.016266 3.5658112 8.016266 8.023075z" fill-rule="evenodd"/><path stroke="#5cde92" stroke-width="4.0" stroke-miterlimit="11.906" stroke-linecap="butt" d="m473.26923 65.695526c0 4.368805 -3.5589905 7.934616 -8.016266 7.934616c-4.3756104 0 -8.023071 -3.5658112 -8.023071 -7.934616c0 -4.457264 3.647461 -8.023075 8.023071 -8.023075c4.4572754 0 8.016266 3.5658112 8.016266 8.023075z" fill-rule="evenodd"/><path fill="#000000" fill-opacity="0.0" d="m513.0512 65.695526c0 4.368805 -3.5658264 7.934616 -8.016296 7.934616c-4.3756104 0 -8.023071 -3.5658112 -8.023071 -7.934616c0 -4.457264 3.565796 -8.023075 8.023071 -8.023075c4.45047 0 8.016296 3.5658112 8.016296 8.023075z" fill-rule="evenodd"/><path stroke="#4abd7f" stroke-width="4.0" stroke-miterlimit="11.906" stroke-linecap="butt" d="m513.0512 65.695526c0 4.368805 -3.5658264 7.934616 -8.016296 7.934616c-4.3756104 0 -8.023071 -3.5658112 -8.023071 -7.934616c0 -4.457264 3.565796 -8.023075 8.023071 -8.023075c4.45047 0 8.016296 3.5658112 8.016296 8.023075z" fill-rule="evenodd"/><path fill="#000000" fill-opacity="0.0" d="m552.8331 65.695526c0 4.368805 -3.565796 7.934616 -8.016296 7.934616c-4.4572144 0 -8.023071 -3.5658112 -8.023071 -7.934616c0 -4.457264 3.565857 -8.023075 8.023071 -8.023075c4.4505005 0 8.016296 3.5658112 8.016296 8.023075z" fill-rule="evenodd"/><path stroke="#389c6c" stroke-width="4.0" stroke-miterlimit="11.906" stroke-linecap="butt" d="m552.8331 65.695526c0 4.368805 -3.565796 7.934616 -8.016296 7.934616c-4.4572144 0 -8.023071 -3.5658112 -8.023071 -7.934616c0 -4.457264 3.565857 -8.023075 8.023071 -8.023075c4.4505005 0 8.016296 3.5658112 8.016296 8.023075z" fill-rule="evenodd"/><path fill="#000000" fill-opacity="0.0" d="m592.6151 65.695526c0 4.368805 -3.565857 7.934616 -8.016296 7.934616c-4.4572754 0 -8.023071 -3.5658112 -8.023071 -7.934616c0 -4.457264 3.565796 -8.023075 8.023071 -8.023075c4.4504395 0 8.016296 3.5658112 8.016296 8.023075z" fill-rule="evenodd"/><path stroke="#257a58" stroke-width="4.0" stroke-miterlimit="11.906" stroke-linecap="butt" d="m592.6151 65.695526c0 4.368805 -3.565857 7.934616 -8.016296 7.934616c-4.4572754 0 -8.023071 -3.5658112 -8.023071 -7.934616c0 -4.457264 3.565796 -8.023075 8.023071 -8.023075c4.4504395 0 8.016296 3.5658112 8.016296 8.023075z" fill-rule="evenodd"/><path fill="#000000" fill-opacity="0.0" d="m632.39703 65.695526c0 4.368805 -3.647461 7.934616 -8.016235 7.934616c-4.4572754 0 -8.023132 -3.5658112 -8.023132 -7.934616c0 -4.457264 3.565857 -8.023075 8.023132 -8.023075c4.3687744 0 8.016235 3.5658112 8.016235 8.023075z" fill-rule="evenodd"/><path stroke="#135945" stroke-width="4.0" stroke-miterlimit="11.906" stroke-linecap="butt" d="m632.39703 65.695526c0 4.368805 -3.647461 7.934616 -8.016235 7.934616c-4.4572754 0 -8.023132 -3.5658112 -8.023132 -7.934616c0 -4.457264 3.565857 -8.023075 8.023132 -8.023075c4.3687744 0 8.016235 3.5658112 8.016235 8.023075z" fill-rule="evenodd"/><path fill="#000000" fill-opacity="0.0" d="m672.179 65.695526c0 -4.457264 -3.647461 -8.023075 -8.016296 -8.023075c-4.4572754 0 -8.023071 3.5658112 -8.023071 8.023075c0 4.368805 3.565796 7.934616 8.023071 7.934616c4.3688354 0 8.016296 -3.5658112 8.016296 -7.934616z" fill-rule="evenodd"/><path stroke="#003832" stroke-width="4.0" stroke-miterlimit="11.906" stroke-linecap="butt" d="m672.179 65.695526c0 -4.457264 -3.647461 -8.023075 -8.016296 -8.023075c-4.4572754 0 -8.023071 3.5658112 -8.023071 8.023075c0 4.368805 3.565796 7.934616 8.023071 7.934616c4.3688354 0 8.016296 -3.5658112 8.016296 -7.934616z" fill-rule="evenodd"/><path fill="#000000" fill-opacity="0.0" d="m433.48727 114.06538c0 4.4504623 -3.5589905 8.0162735 -8.016266 8.0162735c-4.3756104 0 -8.023071 -3.5658112 -8.023071 -8.0162735c0 -4.3756104 3.647461 -8.023079 8.023071 -8.023079c4.4572754 0.08165741 8.016266 3.6474686 8.016266 8.023079z" fill-rule="evenodd"/><path stroke="#6fffa5" stroke-width="4.0" stroke-miterlimit="11.906" stroke-linecap="butt" d="m433.48727 114.06538c0 4.4504623 -3.5589905 8.0162735 -8.016266 8.0162735c-4.3756104 0 -8.023071 -3.5658112 -8.023071 -8.0162735c0 -4.3756104 3.647461 -8.023079 8.023071 -8.023079c4.4572754 0.08165741 8.016266 3.6474686 8.016266 8.023079z" fill-rule="evenodd"/><path fill="#000000" fill-opacity="0.0" d="m473.26923 114.06538c0 4.4504623 -3.5589905 8.0162735 -8.016266 8.0162735c-4.3756104 0 -8.023071 -3.5658112 -8.023071 -8.0162735c0 -4.3756104 3.647461 -8.023079 8.023071 -8.023079c4.4572754 0.08165741 8.016266 3.6474686 8.016266 8.023079z" fill-rule="evenodd"/><path stroke="#5cde92" stroke-width="4.0" stroke-miterlimit="11.906" stroke-linecap="butt" d="m473.26923 114.06538c0 4.4504623 -3.5589905 8.0162735 -8.016266 8.0162735c-4.3756104 0 -8.023071 -3.5658112 -8.023071 -8.0162735c0 -4.3756104 3.647461 -8.023079 8.023071 -8.023079c4.4572754 0.08165741 8.016266 3.6474686 8.016266 8.023079z" fill-rule="evenodd"/><path fill="#000000" fill-opacity="0.0" d="m513.0512 114.06538c0 4.4504623 -3.5658264 8.0162735 -8.016296 8.0162735c-4.3756104 0 -8.023071 -3.5658112 -8.023071 -8.0162735c0 -4.3756104 3.565796 -8.023079 8.023071 -8.023079c4.45047 0.08165741 8.016296 3.6474686 8.016296 8.023079z" fill-rule="evenodd"/><path stroke="#4abd7f" stroke-width="4.0" stroke-miterlimit="11.906" stroke-linecap="butt" d="m513.0512 114.06538c0 4.4504623 -3.5658264 8.0162735 -8.016296 8.0162735c-4.3756104 0 -8.023071 -3.5658112 -8.023071 -8.0162735c0 -4.3756104 3.565796 -8.023079 8.023071 -8.023079c4.45047 0.08165741 8.016296 3.6474686 8.016296 8.023079z" fill-rule="evenodd"/><path fill="#000000" fill-opacity="0.0" d="m552.8331 114.06538c0 4.4504623 -3.565796 8.0162735 -8.016296 8.0162735c-4.4572144 0 -8.023071 -3.5658112 -8.023071 -8.0162735c0 -4.3756104 3.565857 -8.023079 8.023071 -8.023079c4.4505005 0.08165741 8.016296 3.6474686 8.016296 8.023079z" fill-rule="evenodd"/><path stroke="#389c6c" stroke-width="4.0" stroke-miterlimit="11.906" stroke-linecap="butt" d="m552.8331 114.06538c0 4.4504623 -3.565796 8.0162735 -8.016296 8.0162735c-4.4572144 0 -8.023071 -3.5658112 -8.023071 -8.0162735c0 -4.3756104 3.565857 -8.023079 8.023071 -8.023079c4.4505005 0.08165741 8.016296 3.6474686 8.016296 8.023079z" fill-rule="evenodd"/><path fill="#000000" fill-opacity="0.0" d="m592.6151 114.06538c0 4.4504623 -3.565857 8.0162735 -8.016296 8.0162735c-4.4572754 0 -8.023071 -3.5658112 -8.023071 -8.0162735c0 -4.3756104 3.565796 -8.023079 8.023071 -8.023079c4.4504395 0.08165741 8.016296 3.6474686 8.016296 8.023079z" fill-rule="evenodd"/><path stroke="#257a58" stroke-width="4.0" stroke-miterlimit="11.906" stroke-linecap="butt" d="m592.6151 114.06538c0 4.4504623 -3.565857 8.0162735 -8.016296 8.0162735c-4.4572754 0 -8.023071 -3.5658112 -8.023071 -8.0162735c0 -4.3756104 3.565796 -8.023079 8.023071 -8.023079c4.4504395 0.08165741 8.016296 3.6474686 8.016296 8.023079z" fill-rule="evenodd"/><path fill="#000000" fill-opacity="0.0" d="m632.39703 114.06538c0 4.4504623 -3.647461 8.0162735 -8.016235 8.0162735c-4.4572754 0 -8.023132 -3.5658112 -8.023132 -8.0162735c0 -4.3756104 3.565857 -8.023079 8.023132 -8.023079c4.3687744 0.08165741 8.016235 3.6474686 8.016235 8.023079z" fill-rule="evenodd"/><path stroke="#135945" stroke-width="4.0" stroke-miterlimit="11.906" stroke-linecap="butt" d="m632.39703 114.06538c0 4.4504623 -3.647461 8.0162735 -8.016235 8.0162735c-4.4572754 0 -8.023132 -3.5658112 -8.023132 -8.0162735c0 -4.3756104 3.565857 -8.023079 8.023132 -8.023079c4.3687744 0.08165741 8.016235 3.6474686 8.016235 8.023079z" fill-rule="evenodd"/><path fill="#000000" fill-opacity="0.0" d="m672.179 114.06538c0 -4.3756104 -3.647461 -8.023079 -8.016296 -8.023079c-4.4572754 0 -8.023071 3.6474686 -8.023071 8.023079c0 4.4504623 3.565796 8.0162735 8.023071 8.0162735c4.3688354 0 8.016296 -3.5658112 8.016296 -8.0162735z" fill-rule="evenodd"/><path stroke="#003832" stroke-width="4.0" stroke-miterlimit="11.906" stroke-linecap="butt" d="m672.179 114.06538c0 -4.3756104 -3.647461 -8.023079 -8.016296 -8.023079c-4.4572754 0 -8.023071 3.6474686 -8.023071 8.023079c0 4.4504623 3.565796 8.0162735 8.023071 8.0162735c4.3688354 0 8.016296 -3.5658112 8.016296 -8.0162735z" fill-rule="evenodd"/><path fill="#000000" fill-opacity="0.0" d="m433.48727 162.51007c0 4.4572754 -3.5589905 8.023087 -8.016266 8.023087c-4.3756104 0 -8.023071 -3.5658112 -8.023071 -8.023087c0 -4.3687897 3.647461 -8.016266 8.023071 -8.016266c4.4572754 0 8.016266 3.6474762 8.016266 8.016266z" fill-rule="evenodd"/><path stroke="#6fffa5" stroke-width="4.0" stroke-miterlimit="11.906" stroke-linecap="butt" d="m433.48727 162.51007c0 4.4572754 -3.5589905 8.023087 -8.016266 8.023087c-4.3756104 0 -8.023071 -3.5658112 -8.023071 -8.023087c0 -4.3687897 3.647461 -8.016266 8.023071 -8.016266c4.4572754 0 8.016266 3.6474762 8.016266 8.016266z" fill-rule="evenodd"/><path fill="#000000" fill-opacity="0.0" d="m473.26923 162.51007c0 4.4572754 -3.5589905 8.023087 -8.016266 8.023087c-4.3756104 0 -8.023071 -3.5658112 -8.023071 -8.023087c0 -4.3687897 3.647461 -8.016266 8.023071 -8.016266c4.4572754 0 8.016266 3.6474762 8.016266 8.016266z" fill-rule="evenodd"/><path stroke="#5cde92" stroke-width="4.0" stroke-miterlimit="11.906" stroke-linecap="butt" d="m473.26923 162.51007c0 4.4572754 -3.5589905 8.023087 -8.016266 8.023087c-4.3756104 0 -8.023071 -3.5658112 -8.023071 -8.023087c0 -4.3687897 3.647461 -8.016266 8.023071 -8.016266c4.4572754 0 8.016266 3.6474762 8.016266 8.016266z" fill-rule="evenodd"/><path fill="#000000" fill-opacity="0.0" d="m513.0512 162.51007c0 4.4572754 -3.5658264 8.023087 -8.016296 8.023087c-4.3756104 0 -8.023071 -3.5658112 -8.023071 -8.023087c0 -4.3687897 3.565796 -8.016266 8.023071 -8.016266c4.45047 0 8.016296 3.6474762 8.016296 8.016266z" fill-rule="evenodd"/><path stroke="#4abd7f" stroke-width="4.0" stroke-miterlimit="11.906" stroke-linecap="butt" d="m513.0512 162.51007c0 4.4572754 -3.5658264 8.023087 -8.016296 8.023087c-4.3756104 0 -8.023071 -3.5658112 -8.023071 -8.023087c0 -4.3687897 3.565796 -8.016266 8.023071 -8.016266c4.45047 0 8.016296 3.6474762 8.016296 8.016266z" fill-rule="evenodd"/><path fill="#000000" fill-opacity="0.0" d="m552.8331 162.51007c0 4.4572754 -3.565796 8.023087 -8.016296 8.023087c-4.4572144 0 -8.023071 -3.5658112 -8.023071 -8.023087c0 -4.3687897 3.565857 -8.016266 8.023071 -8.016266c4.4505005 0 8.016296 3.6474762 8.016296 8.016266z" fill-rule="evenodd"/><path stroke="#389c6c" stroke-width="4.0" stroke-miterlimit="11.906" stroke-linecap="butt" d="m552.8331 162.51007c0 4.4572754 -3.565796 8.023087 -8.016296 8.023087c-4.4572144 0 -8.023071 -3.5658112 -8.023071 -8.023087c0 -4.3687897 3.565857 -8.016266 8.023071 -8.016266c4.4505005 0 8.016296 3.6474762 8.016296 8.016266z" fill-rule="evenodd"/><path fill="#000000" fill-opacity="0.0" d="m592.6151 162.51007c0 4.4572754 -3.565857 8.023087 -8.016296 8.023087c-4.4572754 0 -8.023071 -3.5658112 -8.023071 -8.023087c0 -4.3687897 3.565796 -8.016266 8.023071 -8.016266c4.4504395 0 8.016296 3.6474762 8.016296 8.016266z" fill-rule="evenodd"/><path stroke="#257a58" stroke-width="4.0" stroke-miterlimit="11.906" stroke-linecap="butt" d="m592.6151 162.51007c0 4.4572754 -3.565857 8.023087 -8.016296 8.023087c-4.4572754 0 -8.023071 -3.5658112 -8.023071 -8.023087c0 -4.3687897 3.565796 -8.016266 8.023071 -8.016266c4.4504395 0 8.016296 3.6474762 8.016296 8.016266z" fill-rule="evenodd"/><path fill="#000000" fill-opacity="0.0" d="m632.39703 162.51007c0 4.4572754 -3.647461 8.023087 -8.016235 8.023087c-4.4572754 0 -8.023132 -3.5658112 -8.023132 -8.023087c0 -4.3687897 3.565857 -8.016266 8.023132 -8.016266c4.3687744 0 8.016235 3.6474762 8.016235 8.016266z" fill-rule="evenodd"/><path stroke="#135945" stroke-width="4.0" stroke-miterlimit="11.906" stroke-linecap="butt" d="m632.39703 162.51007c0 4.4572754 -3.647461 8.023087 -8.016235 8.023087c-4.4572754 0 -8.023132 -3.5658112 -8.023132 -8.023087c0 -4.3687897 3.565857 -8.016266 8.023132 -8.016266c4.3687744 0 8.016235 3.6474762 8.016235 8.016266z" fill-rule="evenodd"/><path fill="#000000" fill-opacity="0.0" d="m672.179 162.51007c0 -4.3687897 -3.647461 -8.016266 -8.016296 -8.016266c-4.4572754 0 -8.023071 3.6474762 -8.023071 8.016266c0 4.4572754 3.565796 8.023087 8.023071 8.023087c4.3688354 0 8.016296 -3.5658112 8.016296 -8.023087z" fill-rule="evenodd"/><path stroke="#003832" stroke-width="4.0" stroke-miterlimit="11.906" stroke-linecap="butt" d="m672.179 162.51007c0 -4.3687897 -3.647461 -8.016266 -8.016296 -8.016266c-4.4572754 0 -8.023071 3.6474762 -8.023071 8.016266c0 4.4572754 3.565796 8.023087 8.023071 8.023087c4.3688354 0 8.016296 -3.5658112 8.016296 -8.023087z" fill-rule="evenodd"/><path fill="#000000" fill-opacity="0.0" d="m433.48727 210.96158c0 4.4572754 -3.5589905 8.023087 -8.016266 8.023087c-4.3756104 0 -8.023071 -3.5658112 -8.023071 -8.023087c0 -4.4504547 3.647461 -8.016266 8.023071 -8.016266c4.4572754 0 8.016266 3.5658112 8.016266 8.016266z" fill-rule="evenodd"/><path stroke="#6fffa5" stroke-width="4.0" stroke-miterlimit="11.906" stroke-linecap="butt" d="m433.48727 210.96158c0 4.4572754 -3.5589905 8.023087 -8.016266 8.023087c-4.3756104 0 -8.023071 -3.5658112 -8.023071 -8.023087c0 -4.4504547 3.647461 -8.016266 8.023071 -8.016266c4.4572754 0 8.016266 3.5658112 8.016266 8.016266z" fill-rule="evenodd"/><path fill="#000000" fill-opacity="0.0" d="m473.26923 210.96158c0 4.4572754 -3.5589905 8.023087 -8.016266 8.023087c-4.3756104 0 -8.023071 -3.5658112 -8.023071 -8.023087c0 -4.4504547 3.647461 -8.016266 8.023071 -8.016266c4.4572754 0 8.016266 3.5658112 8.016266 8.016266z" fill-rule="evenodd"/><path stroke="#5cde92" stroke-width="4.0" stroke-miterlimit="11.906" stroke-linecap="butt" d="m473.26923 210.96158c0 4.4572754 -3.5589905 8.023087 -8.016266 8.023087c-4.3756104 0 -8.023071 -3.5658112 -8.023071 -8.023087c0 -4.4504547 3.647461 -8.016266 8.023071 -8.016266c4.4572754 0 8.016266 3.5658112 8.016266 8.016266z" fill-rule="evenodd"/><path fill="#000000" fill-opacity="0.0" d="m513.0512 210.96158c0 4.4572754 -3.5658264 8.023087 -8.016296 8.023087c-4.3756104 0 -8.023071 -3.5658112 -8.023071 -8.023087c0 -4.4504547 3.565796 -8.016266 8.023071 -8.016266c4.45047 0 8.016296 3.5658112 8.016296 8.016266z" fill-rule="evenodd"/><path stroke="#4abd7f" stroke-width="4.0" stroke-miterlimit="11.906" stroke-linecap="butt" d="m513.0512 210.96158c0 4.4572754 -3.5658264 8.023087 -8.016296 8.023087c-4.3756104 0 -8.023071 -3.5658112 -8.023071 -8.023087c0 -4.4504547 3.565796 -8.016266 8.023071 -8.016266c4.45047 0 8.016296 3.5658112 8.016296 8.016266z" fill-rule="evenodd"/><path fill="#000000" fill-opacity="0.0" d="m552.8331 210.96158c0 4.4572754 -3.565796 8.023087 -8.016296 8.023087c-4.4572144 0 -8.023071 -3.5658112 -8.023071 -8.023087c0 -4.4504547 3.565857 -8.016266 8.023071 -8.016266c4.4505005 0 8.016296 3.5658112 8.016296 8.016266z" fill-rule="evenodd"/><path stroke="#389c6c" stroke-width="4.0" stroke-miterlimit="11.906" stroke-linecap="butt" d="m552.8331 210.96158c0 4.4572754 -3.565796 8.023087 -8.016296 8.023087c-4.4572144 0 -8.023071 -3.5658112 -8.023071 -8.023087c0 -4.4504547 3.565857 -8.016266 8.023071 -8.016266c4.4505005 0 8.016296 3.5658112 8.016296 8.016266z" fill-rule="evenodd"/><path fill="#000000" fill-opacity="0.0" d="m592.6151 210.96158c0 4.4572754 -3.565857 8.023087 -8.016296 8.023087c-4.4572754 0 -8.023071 -3.5658112 -8.023071 -8.023087c0 -4.4504547 3.565796 -8.016266 8.023071 -8.016266c4.4504395 0 8.016296 3.5658112 8.016296 8.016266z" fill-rule="evenodd"/><path stroke="#257a58" stroke-width="4.0" stroke-miterlimit="11.906" stroke-linecap="butt" d="m592.6151 210.96158c0 4.4572754 -3.565857 8.023087 -8.016296 8.023087c-4.4572754 0 -8.023071 -3.5658112 -8.023071 -8.023087c0 -4.4504547 3.565796 -8.016266 8.023071 -8.016266c4.4504395 0 8.016296 3.5658112 8.016296 8.016266z" fill-rule="evenodd"/><path fill="#000000" fill-opacity="0.0" d="m632.39703 210.96158c0 4.4572754 -3.647461 8.023087 -8.016235 8.023087c-4.4572754 0 -8.023132 -3.5658112 -8.023132 -8.023087c0 -4.4504547 3.565857 -8.016266 8.023132 -8.016266c4.3687744 0 8.016235 3.5658112 8.016235 8.016266z" fill-rule="evenodd"/><path stroke="#135945" stroke-width="4.0" stroke-miterlimit="11.906" stroke-linecap="butt" d="m632.39703 210.96158c0 4.4572754 -3.647461 8.023087 -8.016235 8.023087c-4.4572754 0 -8.023132 -3.5658112 -8.023132 -8.023087c0 -4.4504547 3.565857 -8.016266 8.023132 -8.016266c4.3687744 0 8.016235 3.5658112 8.016235 8.016266z" fill-rule="evenodd"/><path fill="#000000" fill-opacity="0.0" d="m672.179 210.96158c0 -4.4504547 -3.647461 -8.016266 -8.016296 -8.016266c-4.4572754 0 -8.023071 3.5658112 -8.023071 8.016266c0 4.4572754 3.565796 8.023087 8.023071 8.023087c4.3688354 0 8.016296 -3.5658112 8.016296 -8.023087z" fill-rule="evenodd"/><path stroke="#003832" stroke-width="4.0" stroke-miterlimit="11.906" stroke-linecap="butt" d="m672.179 210.96158c0 -4.4504547 -3.647461 -8.016266 -8.016296 -8.016266c-4.4572754 0 -8.023071 3.5658112 -8.023071 8.016266c0 4.4572754 3.565796 8.023087 8.023071 8.023087c4.3688354 0 8.016296 -3.5658112 8.016296 -8.023087z" fill-rule="evenodd"/><path fill="#000000" fill-opacity="0.0" d="m433.48727 259.4131c0 4.4572754 -3.5589905 8.023071 -8.016266 8.023071c-4.3756104 0 -8.023071 -3.565796 -8.023071 -8.023071c0 -4.45726 3.647461 -8.016266 8.023071 -8.016266c4.4572754 0 8.016266 3.5590057 8.016266 8.016266z" fill-rule="evenodd"/><path stroke="#6fffa5" stroke-width="4.0" stroke-miterlimit="11.906" stroke-linecap="butt" d="m433.48727 259.4131c0 4.4572754 -3.5589905 8.023071 -8.016266 8.023071c-4.3756104 0 -8.023071 -3.565796 -8.023071 -8.023071c0 -4.45726 3.647461 -8.016266 8.023071 -8.016266c4.4572754 0 8.016266 3.5590057 8.016266 8.016266z" fill-rule="evenodd"/><path fill="#000000" fill-opacity="0.0" d="m473.26923 259.4131c0 4.4572754 -3.5589905 8.023071 -8.016266 8.023071c-4.3756104 0 -8.023071 -3.565796 -8.023071 -8.023071c0 -4.45726 3.647461 -8.016266 8.023071 -8.016266c4.4572754 0 8.016266 3.5590057 8.016266 8.016266z" fill-rule="evenodd"/><path stroke="#5cde92" stroke-width="4.0" stroke-miterlimit="11.906" stroke-linecap="butt" d="m473.26923 259.4131c0 4.4572754 -3.5589905 8.023071 -8.016266 8.023071c-4.3756104 0 -8.023071 -3.565796 -8.023071 -8.023071c0 -4.45726 3.647461 -8.016266 8.023071 -8.016266c4.4572754 0 8.016266 3.5590057 8.016266 8.016266z" fill-rule="evenodd"/><path fill="#000000" fill-opacity="0.0" d="m513.0512 259.4131c0 4.4572754 -3.5658264 8.023071 -8.016296 8.023071c-4.3756104 0 -8.023071 -3.565796 -8.023071 -8.023071c0 -4.45726 3.565796 -8.016266 8.023071 -8.016266c4.45047 0 8.016296 3.5590057 8.016296 8.016266z" fill-rule="evenodd"/><path stroke="#4abd7f" stroke-width="4.0" stroke-miterlimit="11.906" stroke-linecap="butt" d="m513.0512 259.4131c0 4.4572754 -3.5658264 8.023071 -8.016296 8.023071c-4.3756104 0 -8.023071 -3.565796 -8.023071 -8.023071c0 -4.45726 3.565796 -8.016266 8.023071 -8.016266c4.45047 0 8.016296 3.5590057 8.016296 8.016266z" fill-rule="evenodd"/><path fill="#000000" fill-opacity="0.0" d="m552.8331 259.4131c0 4.4572754 -3.565796 8.023071 -8.016296 8.023071c-4.4572144 0 -8.023071 -3.565796 -8.023071 -8.023071c0 -4.45726 3.565857 -8.016266 8.023071 -8.016266c4.4505005 0 8.016296 3.5590057 8.016296 8.016266z" fill-rule="evenodd"/><path stroke="#389c6c" stroke-width="4.0" stroke-miterlimit="11.906" stroke-linecap="butt" d="m552.8331 259.4131c0 4.4572754 -3.565796 8.023071 -8.016296 8.023071c-4.4572144 0 -8.023071 -3.565796 -8.023071 -8.023071c0 -4.45726 3.565857 -8.016266 8.023071 -8.016266c4.4505005 0 8.016296 3.5590057 8.016296 8.016266z" fill-rule="evenodd"/><path fill="#000000" fill-opacity="0.0" d="m592.6151 259.4131c0 4.4572754 -3.565857 8.023071 -8.016296 8.023071c-4.4572754 0 -8.023071 -3.565796 -8.023071 -8.023071c0 -4.45726 3.565796 -8.016266 8.023071 -8.016266c4.4504395 0 8.016296 3.5590057 8.016296 8.016266z" fill-rule="evenodd"/><path stroke="#257a58" stroke-width="4.0" stroke-miterlimit="11.906" stroke-linecap="butt" d="m592.6151 259.4131c0 4.4572754 -3.565857 8.023071 -8.016296 8.023071c-4.4572754 0 -8.023071 -3.565796 -8.023071 -8.023071c0 -4.45726 3.565796 -8.016266 8.023071 -8.016266c4.4504395 0 8.016296 3.5590057 8.016296 8.016266z" fill-rule="evenodd"/><path fill="#000000" fill-opacity="0.0" d="m632.39703 259.4131c0 4.4572754 -3.647461 8.023071 -8.016235 8.023071c-4.4572754 0 -8.023132 -3.565796 -8.023132 -8.023071c0 -4.45726 3.565857 -8.016266 8.023132 -8.016266c4.3687744 0 8.016235 3.5590057 8.016235 8.016266z" fill-rule="evenodd"/><path stroke="#135945" stroke-width="4.0" stroke-miterlimit="11.906" stroke-linecap="butt" d="m632.39703 259.4131c0 4.4572754 -3.647461 8.023071 -8.016235 8.023071c-4.4572754 0 -8.023132 -3.565796 -8.023132 -8.023071c0 -4.45726 3.565857 -8.016266 8.023132 -8.016266c4.3687744 0 8.016235 3.5590057 8.016235 8.016266z" fill-rule="evenodd"/><path fill="#000000" fill-opacity="0.0" d="m672.179 259.4131c0 -4.45726 -3.647461 -8.016266 -8.016296 -8.016266c-4.4572754 0 -8.023071 3.5590057 -8.023071 8.016266c0 4.4572754 3.565796 8.023071 8.023071 8.023071c4.3688354 0 8.016296 -3.565796 8.016296 -8.023071z" fill-rule="evenodd"/><path stroke="#003832" stroke-width="4.0" stroke-miterlimit="11.906" stroke-linecap="butt" d="m672.179 259.4131c0 -4.45726 -3.647461 -8.016266 -8.016296 -8.016266c-4.4572754 0 -8.023071 3.5590057 -8.023071 8.016266c0 4.4572754 3.565796 8.023071 8.023071 8.023071c4.3688354 0 8.016296 -3.565796 8.016296 -8.023071z" fill-rule="evenodd"/><path fill="#000000" fill-opacity="0.0" d="m433.48727 307.8646c0 4.3756104 -3.5589905 8.023071 -8.016266 8.023071c-4.3756104 0 -8.023071 -3.647461 -8.023071 -8.023071c0 -4.4572754 3.647461 -8.016266 8.023071 -8.016266c4.4572754 0 8.016266 3.5589905 8.016266 8.016266z" fill-rule="evenodd"/><path stroke="#6fffa5" stroke-width="4.0" stroke-miterlimit="11.906" stroke-linecap="butt" d="m433.48727 307.8646c0 4.3756104 -3.5589905 8.023071 -8.016266 8.023071c-4.3756104 0 -8.023071 -3.647461 -8.023071 -8.023071c0 -4.4572754 3.647461 -8.016266 8.023071 -8.016266c4.4572754 0 8.016266 3.5589905 8.016266 8.016266z" fill-rule="evenodd"/><path fill="#000000" fill-opacity="0.0" d="m473.26923 307.8646c0 4.3756104 -3.5589905 8.023071 -8.016266 8.023071c-4.3756104 0 -8.023071 -3.647461 -8.023071 -8.023071c0 -4.4572754 3.647461 -8.016266 8.023071 -8.016266c4.4572754 0 8.016266 3.5589905 8.016266 8.016266z" fill-rule="evenodd"/><path stroke="#5cde92" stroke-width="4.0" stroke-miterlimit="11.906" stroke-linecap="butt" d="m473.26923 307.8646c0 4.3756104 -3.5589905 8.023071 -8.016266 8.023071c-4.3756104 0 -8.023071 -3.647461 -8.023071 -8.023071c0 -4.4572754 3.647461 -8.016266 8.023071 -8.016266c4.4572754 0 8.016266 3.5589905 8.016266 8.016266z" fill-rule="evenodd"/><path fill="#000000" fill-opacity="0.0" d="m513.0512 307.8646c0 4.3756104 -3.5658264 8.023071 -8.016296 8.023071c-4.3756104 0 -8.023071 -3.647461 -8.023071 -8.023071c0 -4.4572754 3.565796 -8.016266 8.023071 -8.016266c4.45047 0 8.016296 3.5589905 8.016296 8.016266z" fill-rule="evenodd"/><path stroke="#4abd7f" stroke-width="4.0" stroke-miterlimit="11.906" stroke-linecap="butt" d="m513.0512 307.8646c0 4.3756104 -3.5658264 8.023071 -8.016296 8.023071c-4.3756104 0 -8.023071 -3.647461 -8.023071 -8.023071c0 -4.4572754 3.565796 -8.016266 8.023071 -8.016266c4.45047 0 8.016296 3.5589905 8.016296 8.016266z" fill-rule="evenodd"/><path fill="#000000" fill-opacity="0.0" d="m552.8331 307.8646c0 4.3756104 -3.565796 8.023071 -8.016296 8.023071c-4.4572144 0 -8.023071 -3.647461 -8.023071 -8.023071c0 -4.4572754 3.565857 -8.016266 8.023071 -8.016266c4.4505005 0 8.016296 3.5589905 8.016296 8.016266z" fill-rule="evenodd"/><path stroke="#389c6c" stroke-width="4.0" stroke-miterlimit="11.906" stroke-linecap="butt" d="m552.8331 307.8646c0 4.3756104 -3.565796 8.023071 -8.016296 8.023071c-4.4572144 0 -8.023071 -3.647461 -8.023071 -8.023071c0 -4.4572754 3.565857 -8.016266 8.023071 -8.016266c4.4505005 0 8.016296 3.5589905 8.016296 8.016266z" fill-rule="evenodd"/><path fill="#000000" fill-opacity="0.0" d="m592.6151 307.8646c0 4.3756104 -3.565857 8.023071 -8.016296 8.023071c-4.4572754 0 -8.023071 -3.647461 -8.023071 -8.023071c0 -4.4572754 3.565796 -8.016266 8.023071 -8.016266c4.4504395 0 8.016296 3.5589905 8.016296 8.016266z" fill-rule="evenodd"/><path stroke="#257a58" stroke-width="4.0" stroke-miterlimit="11.906" stroke-linecap="butt" d="m592.6151 307.8646c0 4.3756104 -3.565857 8.023071 -8.016296 8.023071c-4.4572754 0 -8.023071 -3.647461 -8.023071 -8.023071c0 -4.4572754 3.565796 -8.016266 8.023071 -8.016266c4.4504395 0 8.016296 3.5589905 8.016296 8.016266z" fill-rule="evenodd"/><path fill="#000000" fill-opacity="0.0" d="m632.39703 307.8646c0 4.3756104 -3.647461 8.023071 -8.016235 8.023071c-4.4572754 0 -8.023132 -3.647461 -8.023132 -8.023071c0 -4.4572754 3.565857 -8.016266 8.023132 -8.016266c4.3687744 0 8.016235 3.5589905 8.016235 8.016266z" fill-rule="evenodd"/><path stroke="#135945" stroke-width="4.0" stroke-miterlimit="11.906" stroke-linecap="butt" d="m632.39703 307.8646c0 4.3756104 -3.647461 8.023071 -8.016235 8.023071c-4.4572754 0 -8.023132 -3.647461 -8.023132 -8.023071c0 -4.4572754 3.565857 -8.016266 8.023132 -8.016266c4.3687744 0 8.016235 3.5589905 8.016235 8.016266z" fill-rule="evenodd"/><path fill="#000000" fill-opacity="0.0" d="m672.179 307.8646c0 -4.4572754 -3.647461 -8.016266 -8.016296 -8.016266c-4.4572754 0 -8.023071 3.5589905 -8.023071 8.016266c0 4.3756104 3.565796 8.023071 8.023071 8.023071c4.3688354 0 8.016296 -3.647461 8.016296 -8.023071z" fill-rule="evenodd"/><path stroke="#003832" stroke-width="4.0" stroke-miterlimit="11.906" stroke-linecap="butt" d="m672.179 307.8646c0 -4.4572754 -3.647461 -8.016266 -8.016296 -8.016266c-4.4572754 0 -8.023071 3.5589905 -8.023071 8.016266c0 4.3756104 3.565796 8.023071 8.023071 8.023071c4.3688354 0 8.016296 -3.647461 8.016296 -8.023071z" fill-rule="evenodd"/><path fill="#000000" fill-opacity="0.0" d="m433.48727 356.3161c0 4.3756104 -3.5589905 7.941437 -8.016266 7.941437c-4.3756104 0 -8.023071 -3.5658264 -8.023071 -7.941437c0 -4.4572754 3.647461 -8.023071 8.023071 -8.023071c4.4572754 0 8.016266 3.565796 8.016266 8.023071z" fill-rule="evenodd"/><path stroke="#6fffa5" stroke-width="4.0" stroke-miterlimit="11.906" stroke-linecap="butt" d="m433.48727 356.3161c0 4.3756104 -3.5589905 7.941437 -8.016266 7.941437c-4.3756104 0 -8.023071 -3.5658264 -8.023071 -7.941437c0 -4.4572754 3.647461 -8.023071 8.023071 -8.023071c4.4572754 0 8.016266 3.565796 8.016266 8.023071z" fill-rule="evenodd"/><path fill="#000000" fill-opacity="0.0" d="m473.26923 356.3161c0 4.3756104 -3.5589905 7.941437 -8.016266 7.941437c-4.3756104 0 -8.023071 -3.5658264 -8.023071 -7.941437c0 -4.4572754 3.647461 -8.023071 8.023071 -8.023071c4.4572754 0 8.016266 3.565796 8.016266 8.023071z" fill-rule="evenodd"/><path stroke="#5cde92" stroke-width="4.0" stroke-miterlimit="11.906" stroke-linecap="butt" d="m473.26923 356.3161c0 4.3756104 -3.5589905 7.941437 -8.016266 7.941437c-4.3756104 0 -8.023071 -3.5658264 -8.023071 -7.941437c0 -4.4572754 3.647461 -8.023071 8.023071 -8.023071c4.4572754 0 8.016266 3.565796 8.016266 8.023071z" fill-rule="evenodd"/><path fill="#000000" fill-opacity="0.0" d="m513.0512 356.3161c0 4.3756104 -3.5658264 7.941437 -8.016296 7.941437c-4.3756104 0 -8.023071 -3.5658264 -8.023071 -7.941437c0 -4.4572754 3.565796 -8.023071 8.023071 -8.023071c4.45047 0 8.016296 3.565796 8.016296 8.023071z" fill-rule="evenodd"/><path stroke="#4abd7f" stroke-width="4.0" stroke-miterlimit="11.906" stroke-linecap="butt" d="m513.0512 356.3161c0 4.3756104 -3.5658264 7.941437 -8.016296 7.941437c-4.3756104 0 -8.023071 -3.5658264 -8.023071 -7.941437c0 -4.4572754 3.565796 -8.023071 8.023071 -8.023071c4.45047 0 8.016296 3.565796 8.016296 8.023071z" fill-rule="evenodd"/><path fill="#000000" fill-opacity="0.0" d="m552.8331 356.3161c0 4.3756104 -3.565796 7.941437 -8.016296 7.941437c-4.4572144 0 -8.023071 -3.5658264 -8.023071 -7.941437c0 -4.4572754 3.565857 -8.023071 8.023071 -8.023071c4.4505005 0 8.016296 3.565796 8.016296 8.023071z" fill-rule="evenodd"/><path stroke="#389c6c" stroke-width="4.0" stroke-miterlimit="11.906" stroke-linecap="butt" d="m552.8331 356.3161c0 4.3756104 -3.565796 7.941437 -8.016296 7.941437c-4.4572144 0 -8.023071 -3.5658264 -8.023071 -7.941437c0 -4.4572754 3.565857 -8.023071 8.023071 -8.023071c4.4505005 0 8.016296 3.565796 8.016296 8.023071z" fill-rule="evenodd"/><path fill="#000000" fill-opacity="0.0" d="m592.6151 356.3161c0 4.3756104 -3.565857 7.941437 -8.016296 7.941437c-4.4572754 0 -8.023071 -3.5658264 -8.023071 -7.941437c0 -4.4572754 3.565796 -8.023071 8.023071 -8.023071c4.4504395 0 8.016296 3.565796 8.016296 8.023071z" fill-rule="evenodd"/><path stroke="#257a58" stroke-width="4.0" stroke-miterlimit="11.906" stroke-linecap="butt" d="m592.6151 356.3161c0 4.3756104 -3.565857 7.941437 -8.016296 7.941437c-4.4572754 0 -8.023071 -3.5658264 -8.023071 -7.941437c0 -4.4572754 3.565796 -8.023071 8.023071 -8.023071c4.4504395 0 8.016296 3.565796 8.016296 8.023071z" fill-rule="evenodd"/><path fill="#000000" fill-opacity="0.0" d="m632.39703 356.3161c0 4.3756104 -3.647461 7.941437 -8.016235 7.941437c-4.4572754 0 -8.023132 -3.5658264 -8.023132 -7.941437c0 -4.4572754 3.565857 -8.023071 8.023132 -8.023071c4.3687744 0 8.016235 3.565796 8.016235 8.023071z" fill-rule="evenodd"/><path stroke="#135945" stroke-width="4.0" stroke-miterlimit="11.906" stroke-linecap="butt" d="m632.39703 356.3161c0 4.3756104 -3.647461 7.941437 -8.016235 7.941437c-4.4572754 0 -8.023132 -3.5658264 -8.023132 -7.941437c0 -4.4572754 3.565857 -8.023071 8.023132 -8.023071c4.3687744 0 8.016235 3.565796 8.016235 8.023071z" fill-rule="evenodd"/><path fill="#000000" fill-opacity="0.0" d="m672.179 356.3161c0 -4.4572754 -3.647461 -8.023071 -8.016296 -8.023071c-4.4572754 0 -8.023071 3.565796 -8.023071 8.023071c0 4.3756104 3.565796 7.941437 8.023071 7.941437c4.3688354 0 8.016296 -3.5658264 8.016296 -7.941437z" fill-rule="evenodd"/><path stroke="#003832" stroke-width="4.0" stroke-miterlimit="11.906" stroke-linecap="butt" d="m672.179 356.3161c0 -4.4572754 -3.647461 -8.023071 -8.016296 -8.023071c-4.4572754 0 -8.023071 3.565796 -8.023071 8.023071c0 4.3756104 3.565796 7.941437 8.023071 7.941437c4.3688354 0 8.016296 -3.5658264 8.016296 -7.941437z" fill-rule="evenodd"/><path fill="#000000" fill-opacity="0.0" d="m433.48727 404.68594c0 4.4572754 -3.5589905 8.023071 -8.016266 8.023071c-4.3756104 0 -8.023071 -3.565796 -8.023071 -8.023071c0 -4.3756104 3.647461 -7.9414062 8.023071 -7.9414062c4.4572754 0 8.016266 3.565796 8.016266 7.9414062z" fill-rule="evenodd"/><path stroke="#6fffa5" stroke-width="4.0" stroke-miterlimit="11.906" stroke-linecap="butt" d="m433.48727 404.68594c0 4.4572754 -3.5589905 8.023071 -8.016266 8.023071c-4.3756104 0 -8.023071 -3.565796 -8.023071 -8.023071c0 -4.3756104 3.647461 -7.9414062 8.023071 -7.9414062c4.4572754 0 8.016266 3.565796 8.016266 7.9414062z" fill-rule="evenodd"/><path fill="#000000" fill-opacity="0.0" d="m473.26923 404.68594c0 4.4572754 -3.5589905 8.023071 -8.016266 8.023071c-4.3756104 0 -8.023071 -3.565796 -8.023071 -8.023071c0 -4.3756104 3.647461 -7.9414062 8.023071 -7.9414062c4.4572754 0 8.016266 3.565796 8.016266 7.9414062z" fill-rule="evenodd"/><path stroke="#5cde92" stroke-width="4.0" stroke-miterlimit="11.906" stroke-linecap="butt" d="m473.26923 404.68594c0 4.4572754 -3.5589905 8.023071 -8.016266 8.023071c-4.3756104 0 -8.023071 -3.565796 -8.023071 -8.023071c0 -4.3756104 3.647461 -7.9414062 8.023071 -7.9414062c4.4572754 0 8.016266 3.565796 8.016266 7.9414062z" fill-rule="evenodd"/><path fill="#000000" fill-opacity="0.0" d="m513.0512 404.68594c0 4.4572754 -3.5658264 8.023071 -8.016296 8.023071c-4.3756104 0 -8.023071 -3.565796 -8.023071 -8.023071c0 -4.3756104 3.565796 -7.9414062 8.023071 -7.9414062c4.45047 0 8.016296 3.565796 8.016296 7.9414062z" fill-rule="evenodd"/><path stroke="#4abd7f" stroke-width="4.0" stroke-miterlimit="11.906" stroke-linecap="butt" d="m513.0512 404.68594c0 4.4572754 -3.5658264 8.023071 -8.016296 8.023071c-4.3756104 0 -8.023071 -3.565796 -8.023071 -8.023071c0 -4.3756104 3.565796 -7.9414062 8.023071 -7.9414062c4.45047 0 8.016296 3.565796 8.016296 7.9414062z" fill-rule="evenodd"/><path fill="#000000" fill-opacity="0.0" d="m552.8331 404.68594c0 4.4572754 -3.565796 8.023071 -8.016296 8.023071c-4.4572144 0 -8.023071 -3.565796 -8.023071 -8.023071c0 -4.3756104 3.565857 -7.9414062 8.023071 -7.9414062c4.4505005 0 8.016296 3.565796 8.016296 7.9414062z" fill-rule="evenodd"/><path stroke="#389c6c" stroke-width="4.0" stroke-miterlimit="11.906" stroke-linecap="butt" d="m552.8331 404.68594c0 4.4572754 -3.565796 8.023071 -8.016296 8.023071c-4.4572144 0 -8.023071 -3.565796 -8.023071 -8.023071c0 -4.3756104 3.565857 -7.9414062 8.023071 -7.9414062c4.4505005 0 8.016296 3.565796 8.016296 7.9414062z" fill-rule="evenodd"/><path fill="#000000" fill-opacity="0.0" d="m592.6151 404.68594c0 4.4572754 -3.565857 8.023071 -8.016296 8.023071c-4.4572754 0 -8.023071 -3.565796 -8.023071 -8.023071c0 -4.3756104 3.565796 -7.9414062 8.023071 -7.9414062c4.4504395 0 8.016296 3.565796 8.016296 7.9414062z" fill-rule="evenodd"/><path stroke="#257a58" stroke-width="4.0" stroke-miterlimit="11.906" stroke-linecap="butt" d="m592.6151 404.68594c0 4.4572754 -3.565857 8.023071 -8.016296 8.023071c-4.4572754 0 -8.023071 -3.565796 -8.023071 -8.023071c0 -4.3756104 3.565796 -7.9414062 8.023071 -7.9414062c4.4504395 0 8.016296 3.565796 8.016296 7.9414062z" fill-rule="evenodd"/><path fill="#000000" fill-opacity="0.0" d="m632.39703 404.68594c0 4.4572754 -3.647461 8.023071 -8.016235 8.023071c-4.4572754 0 -8.023132 -3.565796 -8.023132 -8.023071c0 -4.3756104 3.565857 -7.9414062 8.023132 -7.9414062c4.3687744 0 8.016235 3.565796 8.016235 7.9414062z" fill-rule="evenodd"/><path stroke="#135945" stroke-width="4.0" stroke-miterlimit="11.906" stroke-linecap="butt" d="m632.39703 404.68594c0 4.4572754 -3.647461 8.023071 -8.016235 8.023071c-4.4572754 0 -8.023132 -3.565796 -8.023132 -8.023071c0 -4.3756104 3.565857 -7.9414062 8.023132 -7.9414062c4.3687744 0 8.016235 3.565796 8.016235 7.9414062z" fill-rule="evenodd"/><path fill="#000000" fill-opacity="0.0" d="m672.179 404.68594c0 -4.3756104 -3.647461 -7.9414062 -8.016296 -7.9414062c-4.4572754 0 -8.023071 3.565796 -8.023071 7.9414062c0 4.4572754 3.565796 8.023071 8.023071 8.023071c4.3688354 0 8.016296 -3.565796 8.016296 -8.023071z" fill-rule="evenodd"/><path stroke="#003832" stroke-width="4.0" stroke-miterlimit="11.906" stroke-linecap="butt" d="m672.179 404.68594c0 -4.3756104 -3.647461 -7.9414062 -8.016296 -7.9414062c-4.4572754 0 -8.023071 3.565796 -8.023071 7.9414062c0 4.4572754 3.565796 8.023071 8.023071 8.023071c4.3688354 0 8.016296 -3.565796 8.016296 -8.023071z" fill-rule="evenodd"/><path fill="#000000" fill-opacity="0.0" d="m433.48727 453.13745c0 4.4572754 -3.5589905 8.023071 -8.016266 8.023071c-4.3756104 0 -8.023071 -3.565796 -8.023071 -8.023071c0 -4.3756104 3.647461 -8.023071 8.023071 -8.023071c4.4572754 0 8.016266 3.647461 8.016266 8.023071z" fill-rule="evenodd"/><path stroke="#6fffa5" stroke-width="4.0" stroke-miterlimit="11.906" stroke-linecap="butt" d="m433.48727 453.13745c0 4.4572754 -3.5589905 8.023071 -8.016266 8.023071c-4.3756104 0 -8.023071 -3.565796 -8.023071 -8.023071c0 -4.3756104 3.647461 -8.023071 8.023071 -8.023071c4.4572754 0 8.016266 3.647461 8.016266 8.023071z" fill-rule="evenodd"/><path fill="#000000" fill-opacity="0.0" d="m473.26923 453.13745c0 4.4572754 -3.5589905 8.023071 -8.016266 8.023071c-4.3756104 0 -8.023071 -3.565796 -8.023071 -8.023071c0 -4.3756104 3.647461 -8.023071 8.023071 -8.023071c4.4572754 0 8.016266 3.647461 8.016266 8.023071z" fill-rule="evenodd"/><path stroke="#5cde92" stroke-width="4.0" stroke-miterlimit="11.906" stroke-linecap="butt" d="m473.26923 453.13745c0 4.4572754 -3.5589905 8.023071 -8.016266 8.023071c-4.3756104 0 -8.023071 -3.565796 -8.023071 -8.023071c0 -4.3756104 3.647461 -8.023071 8.023071 -8.023071c4.4572754 0 8.016266 3.647461 8.016266 8.023071z" fill-rule="evenodd"/><path fill="#000000" fill-opacity="0.0" d="m513.0512 453.13745c0 4.4572754 -3.5658264 8.023071 -8.016296 8.023071c-4.3756104 0 -8.023071 -3.565796 -8.023071 -8.023071c0 -4.3756104 3.565796 -8.023071 8.023071 -8.023071c4.45047 0 8.016296 3.647461 8.016296 8.023071z" fill-rule="evenodd"/><path stroke="#4abd7f" stroke-width="4.0" stroke-miterlimit="11.906" stroke-linecap="butt" d="m513.0512 453.13745c0 4.4572754 -3.5658264 8.023071 -8.016296 8.023071c-4.3756104 0 -8.023071 -3.565796 -8.023071 -8.023071c0 -4.3756104 3.565796 -8.023071 8.023071 -8.023071c4.45047 0 8.016296 3.647461 8.016296 8.023071z" fill-rule="evenodd"/><path fill="#000000" fill-opacity="0.0" d="m552.8331 453.13745c0 4.4572754 -3.565796 8.023071 -8.016296 8.023071c-4.4572144 0 -8.023071 -3.565796 -8.023071 -8.023071c0 -4.3756104 3.565857 -8.023071 8.023071 -8.023071c4.4505005 0 8.016296 3.647461 8.016296 8.023071z" fill-rule="evenodd"/><path stroke="#389c6c" stroke-width="4.0" stroke-miterlimit="11.906" stroke-linecap="butt" d="m552.8331 453.13745c0 4.4572754 -3.565796 8.023071 -8.016296 8.023071c-4.4572144 0 -8.023071 -3.565796 -8.023071 -8.023071c0 -4.3756104 3.565857 -8.023071 8.023071 -8.023071c4.4505005 0 8.016296 3.647461 8.016296 8.023071z" fill-rule="evenodd"/><path fill="#000000" fill-opacity="0.0" d="m592.6151 453.13745c0 4.4572754 -3.565857 8.023071 -8.016296 8.023071c-4.4572754 0 -8.023071 -3.565796 -8.023071 -8.023071c0 -4.3756104 3.565796 -8.023071 8.023071 -8.023071c4.4504395 0 8.016296 3.647461 8.016296 8.023071z" fill-rule="evenodd"/><path stroke="#257a58" stroke-width="4.0" stroke-miterlimit="11.906" stroke-linecap="butt" d="m592.6151 453.13745c0 4.4572754 -3.565857 8.023071 -8.016296 8.023071c-4.4572754 0 -8.023071 -3.565796 -8.023071 -8.023071c0 -4.3756104 3.565796 -8.023071 8.023071 -8.023071c4.4504395 0 8.016296 3.647461 8.016296 8.023071z" fill-rule="evenodd"/><path fill="#000000" fill-opacity="0.0" d="m632.39703 453.13745c0 4.4572754 -3.647461 8.023071 -8.016235 8.023071c-4.4572754 0 -8.023132 -3.565796 -8.023132 -8.023071c0 -4.3756104 3.565857 -8.023071 8.023132 -8.023071c4.3687744 0 8.016235 3.647461 8.016235 8.023071z" fill-rule="evenodd"/><path stroke="#135945" stroke-width="4.0" stroke-miterlimit="11.906" stroke-linecap="butt" d="m632.39703 453.13745c0 4.4572754 -3.647461 8.023071 -8.016235 8.023071c-4.4572754 0 -8.023132 -3.565796 -8.023132 -8.023071c0 -4.3756104 3.565857 -8.023071 8.023132 -8.023071c4.3687744 0 8.016235 3.647461 8.016235 8.023071z" fill-rule="evenodd"/><path fill="#000000" fill-opacity="0.0" d="m672.179 453.13745c0 -4.3756104 -3.647461 -8.023071 -8.016296 -8.023071c-4.4572754 0 -8.023071 3.647461 -8.023071 8.023071c0 4.4572754 3.565796 8.023071 8.023071 8.023071c4.3688354 0 8.016296 -3.565796 8.016296 -8.023071z" fill-rule="evenodd"/><path stroke="#003832" stroke-width="4.0" stroke-miterlimit="11.906" stroke-linecap="butt" d="m672.179 453.13745c0 -4.3756104 -3.647461 -8.023071 -8.016296 -8.023071c-4.4572754 0 -8.023071 3.647461 -8.023071 8.023071c0 4.4572754 3.565796 8.023071 8.023071 8.023071c4.3688354 0 8.016296 -3.565796 8.016296 -8.023071z" fill-rule="evenodd"/><path fill="#000000" fill-opacity="0.0" d="m433.48727 501.58896c0 4.4572754 -3.5589905 8.023071 -8.016266 8.023071c-4.3756104 0 -8.023071 -3.565796 -8.023071 -8.023071c0 -4.4572754 3.647461 -8.023071 8.023071 -8.023071c4.4572754 0 8.016266 3.565796 8.016266 8.023071z" fill-rule="evenodd"/><path stroke="#6fffa5" stroke-width="4.0" stroke-miterlimit="11.906" stroke-linecap="butt" d="m433.48727 501.58896c0 4.4572754 -3.5589905 8.023071 -8.016266 8.023071c-4.3756104 0 -8.023071 -3.565796 -8.023071 -8.023071c0 -4.4572754 3.647461 -8.023071 8.023071 -8.023071c4.4572754 0 8.016266 3.565796 8.016266 8.023071z" fill-rule="evenodd"/><path fill="#000000" fill-opacity="0.0" d="m473.26923 501.58896c0 4.4572754 -3.5589905 8.023071 -8.016266 8.023071c-4.3756104 0 -8.023071 -3.565796 -8.023071 -8.023071c0 -4.4572754 3.647461 -8.023071 8.023071 -8.023071c4.4572754 0 8.016266 3.565796 8.016266 8.023071z" fill-rule="evenodd"/><path stroke="#5cde92" stroke-width="4.0" stroke-miterlimit="11.906" stroke-linecap="butt" d="m473.26923 501.58896c0 4.4572754 -3.5589905 8.023071 -8.016266 8.023071c-4.3756104 0 -8.023071 -3.565796 -8.023071 -8.023071c0 -4.4572754 3.647461 -8.023071 8.023071 -8.023071c4.4572754 0 8.016266 3.565796 8.016266 8.023071z" fill-rule="evenodd"/><path fill="#000000" fill-opacity="0.0" d="m513.0512 501.58896c0 4.4572754 -3.5658264 8.023071 -8.016296 8.023071c-4.3756104 0 -8.023071 -3.565796 -8.023071 -8.023071c0 -4.4572754 3.565796 -8.023071 8.023071 -8.023071c4.45047 0 8.016296 3.565796 8.016296 8.023071z" fill-rule="evenodd"/><path stroke="#4abd7f" stroke-width="4.0" stroke-miterlimit="11.906" stroke-linecap="butt" d="m513.0512 501.58896c0 4.4572754 -3.5658264 8.023071 -8.016296 8.023071c-4.3756104 0 -8.023071 -3.565796 -8.023071 -8.023071c0 -4.4572754 3.565796 -8.023071 8.023071 -8.023071c4.45047 0 8.016296 3.565796 8.016296 8.023071z" fill-rule="evenodd"/><path fill="#000000" fill-opacity="0.0" d="m552.8331 501.58896c0 4.4572754 -3.565796 8.023071 -8.016296 8.023071c-4.4572144 0 -8.023071 -3.565796 -8.023071 -8.023071c0 -4.4572754 3.565857 -8.023071 8.023071 -8.023071c4.4505005 0 8.016296 3.565796 8.016296 8.023071z" fill-rule="evenodd"/><path stroke="#389c6c" stroke-width="4.0" stroke-miterlimit="11.906" stroke-linecap="butt" d="m552.8331 501.58896c0 4.4572754 -3.565796 8.023071 -8.016296 8.023071c-4.4572144 0 -8.023071 -3.565796 -8.023071 -8.023071c0 -4.4572754 3.565857 -8.023071 8.023071 -8.023071c4.4505005 0 8.016296 3.565796 8.016296 8.023071z" fill-rule="evenodd"/><path fill="#000000" fill-opacity="0.0" d="m592.6151 501.58896c0 4.4572754 -3.565857 8.023071 -8.016296 8.023071c-4.4572754 0 -8.023071 -3.565796 -8.023071 -8.023071c0 -4.4572754 3.565796 -8.023071 8.023071 -8.023071c4.4504395 0 8.016296 3.565796 8.016296 8.023071z" fill-rule="evenodd"/><path stroke="#257a58" stroke-width="4.0" stroke-miterlimit="11.906" stroke-linecap="butt" d="m592.6151 501.58896c0 4.4572754 -3.565857 8.023071 -8.016296 8.023071c-4.4572754 0 -8.023071 -3.565796 -8.023071 -8.023071c0 -4.4572754 3.565796 -8.023071 8.023071 -8.023071c4.4504395 0 8.016296 3.565796 8.016296 8.023071z" fill-rule="evenodd"/><path fill="#000000" fill-opacity="0.0" d="m632.39703 501.58896c0 4.4572754 -3.647461 8.023071 -8.016235 8.023071c-4.4572754 0 -8.023132 -3.565796 -8.023132 -8.023071c0 -4.4572754 3.565857 -8.023071 8.023132 -8.023071c4.3687744 0 8.016235 3.565796 8.016235 8.023071z" fill-rule="evenodd"/><path stroke="#135945" stroke-width="4.0" stroke-miterlimit="11.906" stroke-linecap="butt" d="m632.39703 501.58896c0 4.4572754 -3.647461 8.023071 -8.016235 8.023071c-4.4572754 0 -8.023132 -3.565796 -8.023132 -8.023071c0 -4.4572754 3.565857 -8.023071 8.023132 -8.023071c4.3687744 0 8.016235 3.565796 8.016235 8.023071z" fill-rule="evenodd"/><path fill="#000000" fill-opacity="0.0" d="m672.179 501.58896c0 -4.4572754 -3.647461 -8.023071 -8.016296 -8.023071c-4.4572754 0 -8.023071 3.565796 -8.023071 8.023071c0 4.4572754 3.565796 8.023071 8.023071 8.023071c4.3688354 0 8.016296 -3.565796 8.016296 -8.023071z" fill-rule="evenodd"/><path stroke="#003832" stroke-width="4.0" stroke-miterlimit="11.906" stroke-linecap="butt" d="m672.179 501.58896c0 -4.4572754 -3.647461 -8.023071 -8.016296 -8.023071c-4.4572754 0 -8.023071 3.565796 -8.023071 8.023071c0 4.4572754 3.565796 8.023071 8.023071 8.023071c4.3688354 0 8.016296 -3.565796 8.016296 -8.023071z" fill-rule="evenodd"/></g></svg>